<svg width="123" height="81" viewBox="0 0 123 81" fill="none" xmlns="http://www.w3.org/2000/svg">
<g clip-path="url(#clip0_522_39)">
<path fill-rule="evenodd" clip-rule="evenodd" d="M70.4504 72.2516C70.4284 70.7935 71.1766 69.3912 72.3801 68.5748C72.7172 68.3462 73.0908 68.1551 73.353 67.8429C74.6593 66.2888 72.089 65.1718 71.4349 64.1124C70.5436 62.6688 70.6032 60.7372 71.6434 59.3858C72.1985 58.6645 72.9736 58.1478 73.7584 57.6867C74.1829 57.437 74.6314 57.1854 74.9052 56.7762C76.0818 55.0223 72.1534 53.6027 71.4743 52.43C70.8615 51.3687 70.6954 50.0326 71.142 48.8916C71.6069 47.7044 72.6509 46.8457 73.7276 46.1628C74.5239 45.6576 75.4699 45.041 75.4709 44.0978C75.4719 43.679 75.3288 43.2881 75.079 42.9269C73.6777 40.8974 69.7723 38.1322 67.2107 39.7871C63.2199 42.3641 62.5745 66.2495 66.1926 76.2328C66.9754 78.3919 69.6638 79.4533 71.7279 78.3833C72.5568 77.954 73.1254 76.8734 72.6701 76.058C71.8393 74.5654 70.4812 74.2715 70.4504 72.2516ZM93.335 66.8469C93.652 67.2714 94.3185 67.0303 94.7709 66.7547C95.6017 66.2495 96.6189 65.3543 97.589 64.9519C97.735 64.8913 97.8791 64.8424 98.0212 64.8068C99.241 64.5052 100.203 65.3024 101.247 65.824C102.146 66.2744 103.126 65.4263 102.827 64.4658C101.464 60.0793 99.096 56.0472 96.0762 52.5981C94.9102 51.2659 89.1069 44.3014 87.112 46.9245C86.3599 47.9128 85.3668 48.7167 84.8808 49.8876C84.8174 50.0393 84.7626 50.2074 84.8107 50.364C84.8741 50.5695 85.0921 50.6819 85.2928 50.7587C86.5895 51.2534 88.0466 51.0219 89.2846 51.7308C90.9703 52.698 91.4553 54.9916 90.2278 56.5063C89.422 57.5014 88.6171 58.4955 87.8103 59.4896C87.721 59.6 87.6287 59.7172 87.6076 59.8574C87.5452 60.2791 88.1042 60.4875 88.5297 60.5048C89.3038 60.5384 90.0828 60.4673 90.8541 60.5451C93.2169 60.7814 94.9208 63.2652 93.6404 65.4753C93.3897 65.9075 93.0363 66.4464 93.335 66.8469ZM97.0386 77.7743C96.7735 77.5323 96.4998 77.2845 96.1627 77.1616C94.9966 76.7389 93.6443 77.8954 92.4369 77.9338C89.9157 77.9338 88.8178 75.7612 87.4328 73.9948C87.2167 73.7192 86.9939 73.4368 86.6923 73.2572C86.3907 73.0776 85.9902 73.0209 85.6943 73.2092C85.4801 73.3455 85.3572 73.5818 85.2544 73.8171C85.2439 73.8412 85.2333 73.8652 85.2227 73.8892C84.6224 75.2934 84.1143 76.737 83.5745 78.1643C83.0559 79.5349 84.0682 81.0006 85.5339 81.0006C85.5339 81.0006 92.9527 80.9785 97.15 80.9382C98.1883 80.9286 98.5331 79.9566 98.1384 79.0912C97.8992 78.5677 97.4632 78.1633 97.0386 77.7743ZM99.5013 67.2369C99.2689 67.2359 99.048 67.3262 98.8395 67.427C97.3047 68.1647 96.0263 69.5401 94.3368 69.7514C91.342 70.126 89.688 66.9468 91.1143 64.5206C91.2949 64.2132 91.5053 63.831 91.318 63.5284C91.1758 63.2979 90.8714 63.2412 90.6015 63.222C89.3788 63.1346 88.0984 63.3555 86.9593 62.9022C82.4431 61.108 86.6356 57.0134 88.0715 54.8802C88.1426 54.7745 88.2127 54.6612 88.2194 54.5344C88.2367 54.2242 87.891 54.0311 87.5922 53.9447C86.3004 53.5672 84.8529 53.6805 83.6831 53.014C82.0541 52.0842 81.545 49.8069 82.6794 48.3143L84.4601 45.9726C85.1622 45.0487 84.8606 43.7126 83.8252 43.1882C82.6861 42.6109 81.156 42.0952 79.8046 41.6985C78.8413 41.4161 77.9192 42.2546 78.0969 43.2429L78.1142 43.3371C78.4907 45.4751 77.1633 47.1492 75.4488 48.2519C74.9647 48.5631 74.4499 48.8483 74.0657 49.2786C73.6825 49.708 73.4491 50.3294 73.6508 50.8692C73.8083 51.2918 74.1925 51.5819 74.57 51.8278C75.6918 52.5568 76.9587 53.1359 77.801 54.1762C79.8882 56.757 76.7973 58.8921 74.8149 60.1725C74.1598 60.5951 73.4356 61.1675 73.4654 61.9455C73.5 62.8244 74.4432 63.3209 75.1021 63.902C76.9107 65.4974 76.7801 68.5825 74.9004 70.0636C74.2098 70.6072 73.2512 71.0385 73.1292 71.9087C73.0207 72.6818 73.6575 73.3388 74.2415 73.8565C75.4584 74.9361 75.8522 76.5276 75.347 78.099C75.3441 78.1076 75.3403 78.1172 75.3374 78.1259C74.7448 79.923 76.4372 81.3195 78.288 80.8863C79.2773 80.6558 80.0515 79.8807 80.4107 78.9308L82.7111 72.8519C83.2182 71.511 84.39 70.6005 85.8269 70.443C87.1754 70.296 88.4903 70.9482 89.3144 72.0258L91.4572 74.8266C91.7396 75.1954 92.2266 75.3414 92.6646 75.1887L94.5462 74.5327C95.9379 74.0477 97.4853 74.4194 98.5034 75.4846L100.774 77.8598C103.988 81.2206 104.456 73.3849 103.639 71.5504C103.032 70.1855 101.202 67.2436 99.5013 67.2369ZM55.8242 39.7871C52.7833 37.8911 49.3572 40.8974 47.9549 42.9269C47.7052 43.2881 47.563 43.679 47.564 44.0978C47.5649 45.041 48.511 45.6576 49.3073 46.1628C50.383 46.8457 51.428 47.7044 51.8929 48.8916C52.3395 50.0326 52.1733 51.3687 51.5606 52.43C50.8815 53.6027 46.9531 55.0223 48.1287 56.7762C48.4034 57.1854 48.852 57.437 49.2765 57.6867C50.0603 58.1478 50.8363 58.6645 51.3906 59.3858C52.4308 60.7372 52.4903 62.6688 51.5999 64.1124C50.9458 65.1718 48.3756 66.2888 49.6818 67.8429C49.9441 68.1551 50.3177 68.3462 50.6548 68.5748C51.8583 69.3912 52.6065 70.7935 52.5844 72.2516C52.5527 74.2715 51.1956 74.5654 50.3638 76.058C49.9095 76.8734 50.4781 77.954 51.307 78.3833C53.3711 79.4533 56.0595 78.3919 56.8423 76.2328C60.4604 66.2495 58.8228 41.6562 55.8242 39.7871ZM20.2074 64.4658C19.9087 65.4263 20.8884 66.2744 21.7874 65.824C22.8314 65.3024 23.7938 64.5052 25.0127 64.8068C25.1558 64.8424 25.2999 64.8913 25.4459 64.9519C26.415 65.3543 27.4322 66.2495 28.264 66.7547C28.7154 67.0303 29.3829 67.2714 29.6999 66.8469C29.9986 66.4464 29.6451 65.9075 29.3944 65.4753C28.1141 63.2652 29.818 60.7814 32.1799 60.5451C32.9521 60.4673 33.731 60.5384 34.5052 60.5048C34.9307 60.4875 35.4897 60.2791 35.4273 59.8574C35.4061 59.7172 35.3139 59.6 35.2236 59.4896C34.4178 58.4955 33.6119 57.5014 32.8071 56.5063C31.5796 54.9916 32.0646 52.698 33.7503 51.7308C34.9883 51.0219 36.4454 51.2534 37.7411 50.7587C37.9428 50.6819 38.1608 50.5695 38.2242 50.364C38.2722 50.2074 38.2165 50.0393 38.1541 49.8876C37.6671 48.7167 36.674 47.9128 35.9229 46.9245C33.927 44.3014 28.1247 51.2659 26.9587 52.5981C23.9379 56.0472 21.5713 60.0793 20.2074 64.4658ZM37.8122 73.8892C37.8016 73.8652 37.791 73.8412 37.7805 73.8171C37.6777 73.5818 37.5547 73.3455 37.3406 73.2092C37.0447 73.0209 36.6432 73.0776 36.3426 73.2572C36.041 73.4368 35.8182 73.7192 35.6021 73.9948C34.2161 75.7612 33.1183 77.9338 30.5979 77.9338C29.3896 77.8954 28.0382 76.7389 26.8722 77.1616C26.5351 77.2845 26.2604 77.5323 25.9962 77.7743C25.5717 78.1633 25.1356 78.5677 24.8965 79.0912C24.5017 79.9566 24.8465 80.9286 25.8848 80.9382C30.0812 80.9785 37.501 81.0006 37.501 81.0006C38.9657 81.0006 39.979 79.5349 39.4603 78.1643C38.9206 76.737 38.4125 75.2934 37.8122 73.8892ZM48.1345 70.0636C46.2548 68.5825 46.1232 65.4974 47.9328 63.902C48.5917 63.3209 49.5349 62.8244 49.5685 61.9455C49.5992 61.1675 48.8741 60.5951 48.22 60.1725C46.2366 58.8921 43.1467 56.757 45.2338 54.1762C46.0752 53.1359 47.3421 52.5568 48.4639 51.8278C48.8424 51.5819 49.2266 51.2918 49.3841 50.8692C49.5858 50.3294 49.3524 49.708 48.9692 49.2786C48.585 48.8483 48.0701 48.5631 47.5861 48.2519C45.8716 47.1492 44.5442 45.4751 44.9207 43.3371L44.937 43.2429C45.1157 42.2546 44.1936 41.4161 43.2303 41.6985C41.8788 42.0952 40.3488 42.6109 39.2097 43.1882C38.1743 43.7126 37.8727 45.0487 38.5748 45.9726L40.3555 48.3143C41.4898 49.8069 40.9808 52.0842 39.3518 53.014C38.1819 53.6805 36.7345 53.5672 35.4417 53.9447C35.1439 54.0311 34.7981 54.2242 34.8145 54.5344C34.8222 54.6612 34.8923 54.7745 34.9633 54.8802C36.3993 57.0134 40.5908 61.108 36.0746 62.9022C34.9355 63.3555 33.6561 63.1346 32.4334 63.222C32.1635 63.2412 31.8581 63.2979 31.7159 63.5284C31.5286 63.831 31.74 64.2132 31.9205 64.5206C33.3468 66.9468 31.6929 70.126 28.6981 69.7514C27.0086 69.5401 25.7292 68.1647 24.1953 67.427C23.9869 67.3262 23.765 67.2359 23.5336 67.2369C21.8316 67.2436 20.0028 70.1855 19.3958 71.5504C18.5794 73.3849 19.0471 81.2206 22.2609 77.8598L24.5315 75.4846C25.5496 74.4194 27.097 74.0477 28.4887 74.5327L30.3703 75.1887C30.8083 75.3414 31.2952 75.1954 31.5776 74.8266L33.7195 72.0258C34.5446 70.9482 35.8595 70.296 37.208 70.443C38.6449 70.6005 39.8167 71.511 40.3229 72.8519L42.6232 78.9308C42.9834 79.8807 43.7576 80.6558 44.7469 80.8863C46.5977 81.3195 48.2901 79.923 47.6965 78.1259C47.6936 78.1172 47.6908 78.1076 47.6879 78.099C47.1827 76.5276 47.5765 74.9361 48.7934 73.8565C49.3774 73.3388 50.0142 72.6818 49.9056 71.9087C49.7837 71.0385 48.8251 70.6072 48.1345 70.0636ZM5.62625 36.5455C5.35827 36.3678 5.04803 36.2218 4.71955 36.1353C3.10881 35.7079 1.45581 36.6674 1.02744 38.2791C0.600019 39.8899 1.55955 41.5438 3.17124 41.9712L13.4465 44.6971C13.945 44.8287 14.4944 44.6395 14.7979 44.1881C15.1802 43.6175 15.0275 42.8453 14.457 42.463L5.62625 36.5455ZM28.3763 32.8966C28.8249 32.6104 28.9565 32.0139 28.6702 31.5653L20.97 19.4911C20.8269 19.2682 20.6425 19.0483 20.4341 18.8639C19.2056 17.7756 17.3269 17.8899 16.2387 19.1194C15.1514 20.3488 15.2657 22.2265 16.4951 23.3148L27.218 32.8063C27.5321 33.0839 28.0046 33.1338 28.3763 32.8966ZM42.5195 25.3587C42.822 25.9148 43.4819 26.2049 44.1139 26.0166C44.8391 25.8015 45.2521 25.0379 45.0369 24.3127L40.2652 8.26778C40.2038 8.06704 40.1173 7.85381 40.0136 7.66267C39.1866 6.14414 37.2848 5.58322 35.7663 6.4102C34.2478 7.23718 33.6869 9.13894 34.5138 10.6575L42.5195 25.3587ZM121.625 37.5453C120.767 36.1642 118.952 35.7406 117.571 36.5993L108.588 42.1806C108.007 42.5418 107.715 43.2602 107.923 43.9451C108.171 44.7643 109.035 45.2273 109.854 44.9795L119.977 41.9175C120.213 41.8445 120.458 41.7369 120.678 41.5995C122.059 40.7418 122.483 38.9265 121.625 37.5453ZM106.221 18.8543C104.94 17.9793 103.192 18.3087 102.317 19.589L94.2705 31.3675C93.942 31.8487 93.9785 32.5105 94.3954 32.9513C94.8756 33.4604 95.6776 33.4844 96.1867 33.0041L106.564 23.2168C106.703 23.0833 106.842 22.9238 106.956 22.7577C107.831 21.4774 107.501 19.7293 106.221 18.8543ZM79.0036 25.4903C79.4214 25.7294 79.9535 25.5854 80.1927 25.1675L88.5364 10.6066C88.6555 10.3953 88.7592 10.1523 88.8265 9.90637C89.2654 8.3062 88.3232 6.6532 86.723 6.21426C85.1219 5.77628 83.4689 6.71851 83.0309 8.31868L78.5963 24.5038C78.4945 24.8775 78.652 25.2886 79.0036 25.4903ZM64.8671 3.93022L63.097 21.4898C63.0124 22.3245 62.2681 22.9325 61.4344 22.8489C60.7034 22.775 60.1463 22.1939 60.0762 21.4898L58.3061 3.93022C58.1236 2.11874 59.4442 0.502245 61.2557 0.319753C63.0672 0.1363 64.6846 1.45697 64.8671 3.26941C64.8892 3.48744 64.8863 3.71987 64.8671 3.93022Z" fill="#3B9CB9"/>
</g>
<defs>
<clipPath id="clip0_522_39">
<rect width="123" height="81" fill="white"/>
</clipPath>
</defs>
</svg>
