<svg width="316" height="202" viewBox="0 0 316 202" fill="none" xmlns="http://www.w3.org/2000/svg">
<g clip-path="url(#clip0_1259_437)">
<path d="M8.65754 86.5251L60.478 56.3088C68.5271 51.615 78.8202 54.4011 83.4679 62.5301L106.215 102.321C118.092 123.095 111.044 149.66 90.4731 161.655L83.9945 165.432C63.425 177.426 37.12 170.309 25.2434 149.534L2.49732 109.743C-2.15037 101.614 0.608421 91.2189 8.65754 86.5251Z" fill="#CF9C6D"/>
<path d="M48.503 63.2915L60.4648 56.3171C68.5139 51.6233 78.8248 54.4405 83.4949 62.609L91.6447 76.8649L67.0606 171.008C51.0239 172.709 34.7185 165.153 25.751 150.419L48.503 63.2915Z" fill="#D3A67B"/>
<path d="M21.127 142.332C30.9762 151.96 39.4313 157.273 46.4933 158.27C53.5554 159.269 65.8191 156.883 83.2855 151.117C93.1963 140.927 99.2216 132.647 101.361 126.277C103.501 119.909 103.747 109.523 102.099 95.1191L106.216 102.321C118.093 123.096 111.045 149.66 90.4742 161.655L83.9956 165.432C63.426 177.426 37.121 170.309 25.2444 149.534L21.127 142.332Z" fill="#C88E57"/>
<path d="M26.6091 147.369C34.1504 153.828 40.7782 157.463 46.4922 158.27C51.8216 159.023 60.1145 157.851 71.3674 154.751L67.121 171.01C51.0464 172.759 34.7174 165.223 25.7983 150.475L26.6091 147.369Z" fill="#CD9968"/>
<path d="M13.2341 95.5219C12.5112 95.9444 11.8777 96.5065 11.3699 97.1762C10.862 97.846 10.4898 98.6101 10.2744 99.4251C10.059 100.24 10.0046 101.09 10.1144 101.926C10.2243 102.762 10.4961 103.569 10.9144 104.299L30.9218 139.296C39.7107 154.67 59.1547 159.95 74.3511 151.091L82.9979 146.048C98.1943 137.188 103.388 117.541 94.5988 102.166L74.5914 67.169C73.7492 65.6931 72.3609 64.6155 70.732 64.1733C69.1031 63.731 67.367 63.9603 65.9055 64.8108L13.2341 95.5219ZM8.23257 86.7726L60.904 56.0614C68.7188 51.5051 78.7183 54.2207 83.2394 62.1274L103.246 97.1248C114.797 117.332 107.971 143.152 88.0007 154.798L79.3527 159.84C59.3808 171.485 33.8262 164.545 22.2739 144.338L2.26762 109.34C-2.25342 101.434 0.417781 91.3277 8.23257 86.7726Z" fill="#E5AE7C"/>
<path d="M29.4093 136.649L30.9218 139.295C39.2633 153.887 57.2019 159.387 71.9982 152.335L68.9093 164.16C53.2394 168.246 36.3269 162.75 25.9771 149.793L29.4093 136.649ZM88.0776 90.76L74.5913 67.1702C73.7493 65.6941 72.3612 64.6163 70.7323 64.1738C69.1033 63.7313 67.3671 63.9604 65.9055 64.8108L44.9832 77.0096L48.5764 63.2497L60.9039 56.0614C68.7187 51.5051 78.7183 54.2207 83.2393 62.1274L91.6932 76.9164L88.0776 90.76Z" fill="#E7B689"/>
<path d="M255.422 56.3088L307.242 86.5251C315.291 91.2189 318.05 101.614 313.402 109.743L290.655 149.534C278.778 170.309 252.475 177.426 231.904 165.432L225.425 161.655C204.856 149.66 197.807 123.095 209.683 102.321L232.43 62.5301C237.078 54.4011 247.371 51.615 255.42 56.3088H255.422Z" fill="#C2D1DD"/>
<path d="M295.267 79.5425L307.229 86.5169C315.278 91.2107 318.018 101.637 313.348 109.805L305.199 124.061L212.178 149.631C202.7 136.454 201.027 118.417 209.178 103.206L295.267 79.5425Z" fill="#D1DCE5"/>
<path d="M213.802 95.1191C210.47 108.547 210.141 118.598 212.817 125.273C215.492 131.949 223.669 141.484 237.347 153.876C251.04 157.45 261.153 158.579 267.685 157.266C274.216 155.953 283.245 150.975 294.773 142.332L290.656 149.534C278.779 170.309 252.476 177.426 231.905 165.432L225.426 161.655C204.857 149.66 197.808 123.096 209.684 102.321L213.802 95.1191Z" fill="#AAC1D4"/>
<path d="M212.223 102.432C210.454 112.257 210.651 119.871 212.817 125.273C214.835 130.311 219.987 136.976 228.272 145.27L212.207 149.685C202.67 136.5 200.968 118.451 209.153 103.276L212.223 102.432Z" fill="#BFD0DE"/>
<path d="M249.995 64.8108C248.534 63.9604 246.797 63.7313 245.169 64.1738C243.54 64.6163 242.151 65.6941 241.309 67.1702L221.302 102.168C212.513 117.541 217.706 137.189 232.903 146.048L241.55 151.091C256.746 159.952 276.19 154.67 284.979 139.295L304.986 104.298C305.831 102.823 306.061 101.07 305.626 99.4246C305.191 97.7789 304.126 96.3751 302.667 95.5219L249.995 64.8108ZM254.997 56.0614L307.668 86.7726C315.483 91.3289 318.154 101.434 313.633 109.34L293.627 144.338C282.076 164.545 256.52 171.485 236.548 159.84L227.9 154.798C207.929 143.152 201.103 117.332 212.655 97.1248L232.661 62.1274C237.183 54.2207 247.182 51.5051 254.997 56.0614Z" fill="#D6E4EF"/>
<path d="M222.816 99.5203L221.302 102.167C212.961 116.758 217.214 135.199 230.659 144.613L218.975 147.825C207.636 136.161 203.891 118.621 209.828 103.091L222.816 99.5203ZM291.5 127.889L304.986 104.299C305.405 103.569 305.677 102.763 305.786 101.926C305.896 101.09 305.842 100.24 305.626 99.4254C305.411 98.6104 305.039 97.8462 304.531 97.1765C304.023 96.5068 303.39 95.9446 302.667 95.5222L281.743 83.3221L295.341 79.5845L307.668 86.7728C315.483 91.3292 318.154 101.434 313.633 109.341L305.179 124.13L291.5 127.889Z" fill="#E0EAF3"/>
<path d="M112.34 9.79204L105.645 3.03059C103.334 0.696689 99.5875 0.696689 97.2766 3.03059L90.5816 9.79204C88.2706 12.1259 88.2706 15.9099 90.5816 18.2438L97.2766 25.0053C99.5875 27.3392 103.334 27.3392 105.645 25.0053L112.34 18.2438C114.651 15.9099 114.651 12.1259 112.34 9.79204Z" fill="#FFF1BF"/>
<path d="M92.3985 33.8771L85.7035 27.1157C84.7791 26.1821 83.2804 26.1821 82.356 27.1157L75.661 33.8771C74.7366 34.8107 74.7366 36.3243 75.661 37.2578L82.356 44.0193C83.2804 44.9528 84.7791 44.9528 85.7035 44.0193L92.3985 37.2578C93.3229 36.3243 93.3229 34.8107 92.3985 33.8771Z" fill="#FEE68C"/>
<path d="M229.509 184.301L222.814 177.539C220.503 175.205 216.756 175.205 214.445 177.539L207.75 184.301C205.439 186.635 205.439 190.419 207.75 192.753L214.445 199.514C216.756 201.848 220.503 201.848 222.814 199.514L229.509 192.753C231.82 190.419 231.82 186.635 229.509 184.301Z" fill="#FFF1BF"/>
<path d="M118.991 41.834H197.009C209.128 41.834 218.951 51.7547 218.951 63.9942V122.658C218.951 153.934 193.845 179.29 162.876 179.29H153.124C122.155 179.29 97.0488 153.934 97.0488 122.658V63.9942C97.0488 51.7547 106.872 41.834 118.991 41.834Z" fill="#FEC701"/>
<path d="M178.979 41.834H196.988C209.106 41.834 218.93 51.7141 218.93 63.901V85.172L130.403 174.479C111.197 165.917 97.6643 146.825 97.0488 124.487L178.979 41.834Z" fill="#FED540"/>
<path d="M154.802 80.9529L162.718 72.959C169.594 66.0145 180.975 66.2511 188.139 73.4861C195.302 80.721 195.536 92.2159 188.661 99.1592L169.246 118.768C168.844 119.174 168.293 119.394 167.725 119.377L157.452 119.078C157.36 119.075 157.267 119.091 157.181 119.125C157.094 119.159 157.015 119.211 156.949 119.277C156.819 119.414 156.748 119.598 156.752 119.788C156.756 119.978 156.835 120.159 156.971 120.29L161.624 124.99C162.027 125.396 162.027 126.057 161.624 126.465L157.809 130.317C156.074 132.07 153.555 132.805 151.084 132.281L133.597 128.569L129.921 110.909C129.403 108.412 130.131 105.869 131.866 104.117L147.199 88.6313C147.295 88.5344 147.409 88.4575 147.534 88.405C147.66 88.3525 147.794 88.3255 147.93 88.3255C148.065 88.3255 148.2 88.3525 148.325 88.405C148.45 88.4575 148.564 88.5344 148.66 88.6313L153.293 93.3108C153.424 93.4474 153.603 93.5263 153.79 93.5301C153.978 93.5339 154.16 93.4623 154.296 93.3311C154.361 93.2645 154.413 93.1851 154.447 93.0977C154.481 93.0103 154.497 92.9169 154.494 92.8231L154.198 82.4876C154.182 81.9139 154.4 81.3581 154.801 80.9529H154.802Z" fill="#F89701"/>
<path d="M171.759 90.3882L128.04 134.541" stroke="#ED8200" stroke-width="4.292" stroke-linecap="round"/>
<path d="M97.0488 112.419C101.955 129.619 108.072 141.082 115.402 146.806C122.731 152.531 138.118 157.865 161.563 162.807C179.331 157.871 191.478 152.536 198.006 146.806C204.533 141.075 211.514 129.613 218.951 112.419V122.658C218.951 153.935 193.845 179.29 162.876 179.29H153.124C122.155 179.29 97.0488 153.935 97.0488 122.658V112.419Z" fill="#FFC100"/>
<path d="M99.9875 121.632C104.331 133.781 109.47 142.173 115.402 146.805C120.932 151.126 131.051 155.223 145.759 159.098L130.5 174.492C111.342 165.95 97.811 146.893 97.0796 124.566L99.9875 121.632Z" fill="#FFD040"/>
<path d="M118.352 54.8887C113.777 54.8887 110.068 58.6072 110.068 63.1958V115.412C110.068 138.352 128.613 156.948 151.491 156.948H164.509C187.387 156.948 205.933 138.352 205.933 115.412V63.1958C205.933 58.6072 202.224 54.8887 197.648 54.8887H118.352ZM118.352 41.834H197.648C209.413 41.834 218.951 51.3973 218.951 63.1958V115.412C218.951 145.562 194.577 170.002 164.509 170.002H151.491C121.423 170.002 97.0488 145.562 97.0488 115.412V63.1958C97.0488 51.3985 106.587 41.834 118.352 41.834Z" fill="#FEE333"/>
<path d="M110.068 111.464V115.412C110.068 137.184 126.773 155.042 148.031 156.804L136.912 168.023C116.579 162.369 101.03 145.185 97.708 123.932L110.068 111.464ZM205.933 98.394V63.1958C205.933 58.6072 202.224 54.8887 197.648 54.8887H166.149L179.09 41.834H197.648C209.413 41.834 218.951 51.3973 218.951 63.1958V85.2604L205.933 98.394Z" fill="#FEEA66"/>
</g>
<defs>
<clipPath id="clip0_1259_437">
<rect width="316" height="202" fill="white"/>
</clipPath>
</defs>
</svg>
