<svg width="43" height="43" viewBox="0 0 43 43" fill="none" xmlns="http://www.w3.org/2000/svg">
<path d="M33.0366 33.9509C32.6376 36.0452 30.8066 37.5604 28.6747 37.5604H14.2978C12.1659 37.5604 10.3349 36.0452 9.93599 33.9509L6.69336 16.9271L21.366 6.07678L36.2798 16.9233L33.0366 33.9509Z" fill="#FFC800"/>
<path opacity="0.5" fill-rule="evenodd" clip-rule="evenodd" d="M17.6782 31.0555C17.6782 30.2639 18.3199 29.6221 19.1115 29.6221H24.8448C25.6364 29.6221 26.2782 30.2639 26.2782 31.0555C26.2782 31.8471 25.6364 32.4889 24.8448 32.4889H19.1115C18.3199 32.4889 17.6782 31.8471 17.6782 31.0555Z" fill="#945151"/>
<path d="M26.174 21.9028C26.174 24.4842 24.0813 26.5767 21.5 26.5767C18.9187 26.5767 16.8262 24.4842 16.8262 21.9028C16.8262 19.3215 18.9187 17.2289 21.5 17.2289C24.0813 17.2289 26.174 19.3215 26.174 21.9028Z" fill="#945151"/>
<path d="M21.7263 3.82249C22.364 3.81938 23.0093 4.01232 23.564 4.41503L40.2391 16.4366C41.6267 17.4449 41.9342 19.387 40.9262 20.7745C39.9182 22.1617 37.9769 22.4695 36.5893 21.4623L21.7151 10.7391L6.84231 21.4613L6.84114 21.4623C5.45364 22.4693 3.51232 22.1616 2.50446 20.7743C1.49632 19.3867 1.80392 17.4446 3.1915 16.4365L3.19364 16.4349L19.8657 4.41554C20.4268 4.00818 21.0815 3.81479 21.7263 3.82249Z" fill="#FF4B4B"/>
</svg>
