<svg width="109" height="106" viewBox="0 0 109 106" fill="none" xmlns="http://www.w3.org/2000/svg">
<g clip-path="url(#clip0_522_50)">
<path d="M62.8163 51.4711C62.7737 52.7271 62.7372 53.9832 62.6414 55.2378C62.5304 56.6855 62.0681 58.0009 61.4568 59.2919C60.9352 60.3929 60.6599 61.573 60.3619 62.7515C60.1672 63.5225 59.9711 64.295 59.8312 65.0781C59.5894 66.2771 59.732 67.5218 60.2387 68.635C60.3451 68.8631 60.5915 68.9087 60.7785 69.0213C61.6841 69.5473 62.6182 70.0225 63.5766 70.4446C63.9078 70.5852 64.2646 70.6551 64.6243 70.6499C65.4486 70.6499 66.0538 71.1061 66.6788 71.5395C66.7158 71.566 66.7469 71.5998 66.7705 71.6388C66.794 71.6777 66.8094 71.721 66.8156 71.7661C66.8368 71.8887 66.8758 72.0075 66.9312 72.1189C67.2354 72.6922 66.989 73.048 66.5146 73.3902C65.8226 73.889 65.1748 74.4547 64.4981 74.9747C64.1012 75.2789 63.6025 75.3853 63.1523 75.583C62.5441 75.8491 61.916 76.059 61.3275 76.3433C60.8789 76.5543 60.3892 76.6634 59.8935 76.6627C59.0419 76.6825 58.2573 76.944 57.4604 77.1736C57.2791 77.2384 57.0887 77.2743 56.8962 77.2801C56.288 77.2664 55.6919 77.4458 55.0957 77.3516C54.5681 77.2694 54.0313 77.3424 53.5112 77.2436C53.2537 77.2083 52.9917 77.2296 52.7433 77.3059C52.4224 77.3911 52.0939 77.3394 51.7715 77.4169C51.4492 77.4945 51.1526 77.3592 50.8454 77.2938C49.2822 76.9744 47.7615 76.5684 46.2408 76.1228C45.8561 76.0103 45.5504 75.7412 45.2007 75.5587C44.787 75.3443 44.3962 75.0812 43.9735 74.8881C43.0611 74.4714 42.287 73.8601 41.5526 73.1879C41.4081 73.0556 41.3746 72.9659 41.4917 72.7926C41.7305 72.4458 41.9479 72.0809 42.1639 71.7281C42.2174 71.6415 42.2877 71.5665 42.3707 71.5076C43.2016 70.903 44.0905 70.3824 45.0243 69.9534C45.4698 69.7512 45.9732 69.7451 46.4476 69.6493C47.1167 69.5064 47.6809 69.1262 48.2922 68.857C48.348 68.8195 48.3919 68.7667 48.4184 68.705C48.9386 67.7602 49.3138 66.7427 49.5316 65.6864C49.635 65.2089 49.3643 64.7862 49.2548 64.3421C49.0465 63.4981 48.6268 62.7332 48.3105 61.9288C48.131 61.4726 48.0307 60.986 47.8968 60.513C47.687 59.7634 47.322 59.0745 47.0468 58.3491C46.6187 57.2868 46.3275 56.1744 46.18 55.0386C46.0583 53.9528 45.9793 52.8549 45.7238 51.7858C45.555 51.0985 45.7238 50.4172 45.8759 49.7588C46.1678 48.4708 46.4339 47.1736 46.8019 45.9054C46.8399 45.751 46.9145 45.6081 47.0194 45.4887C47.7387 44.6949 48.4519 43.8965 49.1681 43.0997C49.2343 43.0067 49.3233 42.9323 49.4266 42.8838C50.6021 42.4595 51.7426 41.9257 52.9592 41.6277C53.534 41.4878 54.1332 41.3372 54.7293 41.3768C55.2657 41.4355 55.7966 41.5372 56.3169 41.6809C56.9814 41.833 57.6429 42.0109 58.3029 42.1888C58.6283 42.277 58.8321 42.5599 59.0997 42.7439C59.8707 43.2715 60.482 43.9756 61.1329 44.6356C61.1874 44.6929 61.2298 44.7607 61.2576 44.8348C61.9008 46.5441 62.4741 48.2776 62.8117 50.0766C62.8862 50.5237 62.8163 51.0042 62.8163 51.4711Z" fill="#00A27A"/>
<path d="M32.8194 55.3958C32.7708 57.6176 33.2832 59.6264 34.0786 61.5789C34.8782 63.5043 35.8798 65.3394 37.0667 67.0534C37.6476 67.9065 37.383 69.0637 36.1011 69.2827C35.8809 69.3164 35.6558 69.2852 35.453 69.1932C35.2502 69.1011 35.0786 68.952 34.959 68.7642C33.2072 66.1942 31.7093 63.495 30.8304 60.4886C30.5667 59.5517 30.3635 58.5988 30.2221 57.6358C30.0868 56.6591 30.046 55.6717 30.1005 54.6872C30.1743 52.8667 30.5245 51.0679 31.1391 49.3527C31.9633 47.0407 33.1501 44.8745 34.6549 42.9354C36.6662 40.2576 39.0612 37.8908 41.7626 35.9113C44.401 34.0044 47.2963 32.6769 50.5232 32.1461C51.9714 31.901 53.4433 31.8265 54.9089 31.9241C57.0684 32.0714 59.198 32.5109 61.2395 33.2304C63.1946 33.9161 65.0666 34.819 66.8204 35.922C68.031 36.676 69.1834 37.5199 70.2678 38.4463C72.0578 39.9575 73.5837 41.7562 74.7827 43.7687C75.8266 45.5765 76.5471 47.5526 76.9116 49.6081C77.0918 50.6296 77.2156 51.6601 77.2827 52.6951C77.5125 55.1851 77.3783 57.6952 76.8843 60.1465C76.4251 62.3859 75.6928 64.5606 74.7036 66.6215C74.4223 67.2055 74.106 67.7757 73.7775 68.3353C73.6211 68.6158 73.3698 68.8312 73.0687 68.9427C72.7675 69.0542 72.4365 69.0546 72.1352 68.9436C71.8596 68.8413 71.6242 68.6529 71.464 68.4064C71.3038 68.16 71.2272 67.8684 71.2456 67.575C71.289 67.2959 71.3928 67.0297 71.5497 66.7949C72.5211 65.0926 73.28 63.2775 73.8094 61.3904C74.1307 60.2589 74.37 59.1058 74.5257 57.9399C74.6967 56.5881 74.741 55.2231 74.658 53.863C74.6078 52.8974 74.5226 51.9317 74.3919 50.9737C74.0178 48.2502 73.1038 45.735 71.3976 43.5467C70.2816 42.1303 68.9956 40.8565 67.5686 39.7541C65.9971 38.5222 64.2869 37.4785 62.4727 36.6443C60.8521 35.8806 59.1422 35.3228 57.383 34.9837C56.4322 34.8117 55.4719 34.6965 54.5074 34.6385C52.5449 34.5131 50.5762 34.7533 48.7014 35.3472C45.987 36.2003 43.6421 37.7042 41.5041 39.5564C40.6662 40.2773 39.8667 41.0418 39.109 41.8466C37.5716 43.4965 36.1634 45.2499 35.0685 47.2328C34.2474 48.687 33.6284 50.2464 33.2285 51.8679C32.9371 53.0207 32.7995 54.207 32.8194 55.3958Z" fill="#00A27A"/>
<path d="M63.753 7.39689C64.6442 9.73874 64.4449 13.6575 63.823 15.1159C62.2324 18.8355 60.4775 21.0648 55.4775 21.8738C52.4209 22.3695 47.8285 21.2488 45.184 17.5763C42.7114 14.1411 42.6095 10.8321 44.1302 6.87073C44.8905 5.55382 45.7938 4.27189 46.8674 3.23022C47.5806 2.79074 50.4136 0.188855 54.4875 0.573588C59.521 1.05716 62.0179 2.83636 63.753 7.39689Z" fill="#00A27A"/>
<path d="M21.315 62.5402C22.2046 64.8821 22.0069 68.8009 21.385 70.2592C19.7943 73.9788 18.0394 76.2081 13.0394 77.0171C9.98287 77.5128 5.39041 76.3936 2.74595 72.7196C0.273317 69.2844 0.169911 65.9754 1.69059 62.014C2.45093 60.6971 3.35422 59.4167 4.42782 58.3735C5.14102 57.9341 7.97405 55.3322 12.048 55.7169C17.0829 56.199 19.5799 57.9797 21.315 62.5402Z" fill="#00A27A"/>
<path d="M20.119 40.2409C17.6159 40.3762 13.9435 38.9955 12.7452 37.9599C9.68403 35.3139 8.09492 32.9629 8.84462 27.9538C9.30082 24.8911 11.7674 20.8583 16.0694 19.4562C20.0901 18.153 23.2835 19.0532 26.5895 21.7083C27.6114 22.8382 28.5587 24.0821 29.2263 25.4218C29.427 26.2354 31.0511 29.7269 29.4377 33.4891C27.4471 38.1393 24.9912 39.9763 20.119 40.2409Z" fill="#00A27A"/>
<path d="M89.5121 39.2411C87.009 39.3764 83.3366 37.9956 82.1383 36.9601C79.0772 34.3141 77.488 31.9631 78.2393 26.954C78.6955 23.8913 81.1605 19.8585 85.464 18.4564C89.4877 17.1456 92.672 18.0534 95.9826 20.7085C97.0045 21.8384 97.9519 23.0823 98.6194 24.422C98.8202 25.2356 100.444 28.7271 98.8308 32.4893C96.8402 37.1395 94.3843 38.9765 89.5121 39.2411Z" fill="#00A27A"/>
<path d="M38.2976 104.64C35.7946 104.776 32.1221 103.395 30.9223 102.359C27.8627 99.7135 26.2736 97.364 27.0233 92.3549C27.4795 89.2922 29.946 85.2579 34.248 83.8573C38.2733 82.5465 41.4561 83.4543 44.7681 86.1079C45.79 87.2393 46.7374 88.4832 47.4035 89.823C47.6057 90.6365 49.2283 94.128 47.6164 97.8902C45.6258 102.539 43.1684 104.376 38.2976 104.64Z" fill="#00A27A"/>
<path d="M76.1114 105.641C73.6083 105.776 69.9359 104.395 68.7376 103.36C65.6825 100.717 64.0873 98.3626 64.8385 93.3534C65.2947 90.2908 67.7598 86.2564 72.0633 84.8559C76.087 83.545 79.2713 84.4529 82.5819 87.1065C83.6038 88.2379 84.5587 89.4818 85.2187 90.8215C85.4194 91.6351 87.0435 95.1265 85.4301 98.8887C83.4395 103.539 80.9836 105.376 76.1114 105.641Z" fill="#00A27A"/>
<path d="M107.844 67.4703C106.831 69.7635 103.938 72.411 102.47 73.0102C98.7247 74.54 95.9084 74.8913 91.7843 71.9457C89.2615 70.1498 86.7813 66.1261 87.4808 61.6553C88.1362 57.4734 90.3884 55.0464 94.2539 53.2915C95.7259 52.8916 97.2649 52.6118 98.7597 52.6239C99.5763 52.814 103.424 52.9493 106.048 56.0911C109.292 59.9855 109.817 63.0071 107.844 67.4703Z" fill="#00A27A"/>
<path d="M100.697 63.2598C98.9513 63.5883 97.6359 64.344 96.4726 66.6722C96.2992 66.7224 96.0635 66.7969 95.8293 66.6038C96.2019 65.0268 96.8102 62.6241 96.2992 60.7765C96.2926 60.754 96.2941 60.7299 96.3036 60.7085C96.313 60.687 96.3298 60.6696 96.3509 60.6594C97.5127 60.1044 98.5362 59.6832 98.9878 58.6141C99.3497 57.7564 98.965 57.32 98.8464 57.139C98.5133 56.6235 96.6049 56.1248 96.2384 56.1248C95.5328 56.1248 94.774 57.5694 94.6402 57.9496C94.4166 58.5837 94.6037 59.9189 94.4181 60.4009C94.2326 60.883 92.9857 63.7936 92.8564 64.4505C92.531 66.1126 92.2633 68.8726 92.7454 69.2817C93.2275 69.6908 97.902 69.633 98.8281 69.633C99.7542 69.633 104.967 68.9471 104.967 66.7923C104.967 64.6375 102.485 62.9222 100.697 63.2598Z" fill="#87D3BF"/>
<path d="M18.6726 31.0719C19.4078 30.9043 20.2783 30.3748 20.8325 29.8948C20.8537 29.8095 20.8851 29.727 20.9259 29.6491C20.9868 28.7424 20.7144 27.7044 20.3944 26.8587C20.3341 26.7799 20.2901 26.6899 20.2649 26.5939C19.4813 26.2999 18.6364 26.2076 17.8078 26.3253C17.7616 26.3866 17.7064 26.4406 17.644 26.4853C17.1507 27.2091 16.5698 28.2339 16.4536 29.0281C16.4916 29.1308 16.547 29.2262 16.6174 29.31C16.6427 29.3306 16.6597 29.3597 16.665 29.3919C17.1373 29.9873 17.6906 30.5137 18.3088 30.9557C18.3743 30.9459 18.4411 30.9513 18.5042 30.9715C18.5673 30.9916 18.6249 31.026 18.6726 31.0719Z" fill="#88D4C0"/>
<path d="M24.8436 25.7559C24.3277 24.8248 23.5746 24.0467 22.6608 23.5007C21.5479 22.8416 20.2838 22.4804 18.9907 22.452C17.6975 22.4236 16.4188 22.7291 15.2781 23.3388C13.1829 24.5045 12.0267 26.6169 12.0115 29.2835C11.94 30.466 12.2041 31.6446 12.7734 32.6834C13.3084 33.6352 14.0724 34.4385 14.9962 35.0205C16.0621 35.6964 17.2798 36.0958 18.539 36.1824C18.7161 36.1957 18.8932 36.2015 19.0685 36.2015C20.1492 36.2107 21.216 35.9571 22.177 35.4624C23.1728 34.9417 24.0004 34.1491 24.5636 33.1767C25.2017 32.0891 25.5522 30.7616 25.6055 29.234C25.6737 28.0268 25.4102 26.824 24.8436 25.7559ZM25.1731 29.2149C25.1731 29.2511 25.1731 29.2873 25.1731 29.3235C25.1079 29.2817 25.0383 29.2472 24.9655 29.2206C24.9311 29.2485 24.8914 29.2692 24.8489 29.2816C24.8064 29.294 24.7619 29.2979 24.7179 29.293C24.0398 29.5673 23.1941 29.9825 22.6894 30.5158C22.6802 30.6074 22.6406 30.6932 22.577 30.7596L22.6341 30.7863C22.6685 31.542 22.7641 32.2936 22.9198 33.0339C23.017 33.0339 23.097 33.0339 23.097 33.1234C23.0935 33.1711 23.0852 33.2183 23.0722 33.2644C23.3553 33.3237 23.6439 33.3524 23.9331 33.3501C23.4286 34.0699 22.7583 34.6579 21.9789 35.0643C21.2951 35.4183 20.5507 35.6399 19.7847 35.7177C19.7847 35.6891 19.7999 35.6624 19.8094 35.6358H19.7466C19.6323 35.6186 19.6266 35.4205 19.7047 35.2548C19.3338 34.6862 18.8769 34.1786 18.3504 33.7501C18.3504 33.731 18.3504 33.7139 18.3504 33.6948L18.3352 33.7406C18.3223 33.7676 18.3021 33.7904 18.2768 33.8064C18.2515 33.8224 18.2222 33.8309 18.1923 33.8309C18.1624 33.8309 18.1331 33.8224 18.1078 33.8064C18.0825 33.7904 18.0623 33.7676 18.0494 33.7406C18.0494 33.7406 18.0494 33.7405 18.0494 33.731C17.3743 33.9357 16.745 34.2687 16.1961 34.712C16.2095 34.8129 16.1961 34.9024 16.1161 34.9291C16.0997 34.9371 16.0824 34.9435 16.0647 34.9481C16.0761 35.0034 16.0876 35.0624 16.1009 35.1215C15.7966 34.9839 15.5025 34.8248 15.2209 34.6453C14.3595 34.1022 13.6467 33.3534 13.1467 32.4663C13.08 32.3463 13.0191 32.2244 12.9562 32.1006C13.1467 32.1158 13.3372 32.1215 13.4952 32.1196C13.5186 32.0742 13.5509 32.0339 13.5902 32.0012C13.6294 31.9684 13.6749 31.9439 13.7238 31.9292C14.0647 31.2577 14.3434 30.5563 14.5562 29.834C14.4514 29.813 14.4457 29.5692 14.5048 29.4721C14.0465 28.8651 13.4615 28.3652 12.7905 28.0073C12.7387 28.0052 12.6883 27.9901 12.6438 27.9635C12.6121 27.9192 12.596 27.8656 12.5981 27.8111L12.5848 27.834C12.7146 27.1308 12.9639 26.455 13.3219 25.8359C13.5051 25.5228 13.7182 25.2281 13.9581 24.956C14.0057 25.0836 14.0552 25.2017 14.1009 25.2969C14.1573 25.3456 14.2072 25.4013 14.2495 25.4626C14.5581 25.5312 14.9866 25.4321 15.3371 25.4017C15.7667 25.3901 16.1936 25.3294 16.6095 25.2207C16.6463 25.1248 16.7131 25.0433 16.7999 24.9883C17.0415 24.3536 17.2326 23.7008 17.3714 23.036C18.4141 22.8262 19.4901 22.8477 20.5237 23.0988C20.7677 23.8228 21.0749 24.5239 21.4418 25.194C21.5446 25.2339 21.6375 25.2957 21.7141 25.375C22.372 25.4772 23.0401 25.4958 23.7027 25.4302C23.7233 25.3977 23.7552 25.374 23.7922 25.3636C23.8335 25.3639 23.8746 25.3703 23.9141 25.3826C23.9331 25.3407 23.9503 25.295 23.9674 25.2474C24.8093 26.3007 25.2284 27.6626 25.1731 29.2149Z" fill="#88D4C0"/>
<path d="M26.9203 30.5157H26.8784C26.8499 30.5103 26.8228 30.4992 26.7987 30.4832C26.7745 30.4672 26.7538 30.4465 26.7376 30.4224C26.7215 30.3983 26.7103 30.3713 26.7047 30.3428C26.6992 30.3144 26.6993 30.2851 26.7051 30.2567C26.8112 29.7036 26.8748 29.1433 26.8956 28.5805C26.8963 28.5517 26.9028 28.5233 26.9146 28.4969C26.9264 28.4706 26.9434 28.4469 26.9645 28.4273C26.9856 28.4076 27.0104 28.3923 27.0375 28.3823C27.0646 28.3723 27.0934 28.3678 27.1222 28.3691C27.1805 28.3711 27.2356 28.396 27.2756 28.4385C27.3155 28.481 27.3371 28.5375 27.3356 28.5958C27.3169 29.1814 27.2532 29.7647 27.1451 30.3405C27.1347 30.3917 27.1063 30.4375 27.0651 30.4697C27.0239 30.5018 26.9725 30.5181 26.9203 30.5157Z" fill="#88D4C0"/>
<path d="M27.0721 27.8262C27.0191 27.8258 26.968 27.8064 26.9281 27.7714C26.8883 27.7364 26.8623 27.6883 26.855 27.6358C26.7333 26.4475 26.2784 25.3178 25.5426 24.3768C24.8486 23.5174 23.9519 22.8439 22.9332 22.4168C22.884 22.3911 22.8462 22.3479 22.8275 22.2957C22.8087 22.2434 22.8103 22.1861 22.8319 22.135C22.8535 22.0838 22.8935 22.0427 22.944 22.0198C22.9946 21.9968 23.0519 21.9937 23.1046 22.0111C24.1919 22.4674 25.1483 23.1875 25.8874 24.1063C26.678 25.1072 27.1681 26.312 27.3007 27.5805C27.3044 27.6091 27.3024 27.6381 27.2948 27.6659C27.2873 27.6936 27.2742 27.7196 27.2565 27.7423C27.2388 27.765 27.2167 27.7839 27.1916 27.798C27.1665 27.8121 27.1388 27.821 27.1102 27.8243L27.0721 27.8262Z" fill="#88D4C0"/>
<path d="M49.4344 4.14415C49.7599 4.14415 50.0838 4.14415 50.4077 4.14415C50.5598 4.14415 50.6951 4.11373 50.8396 4.10005C50.908 4.09244 50.9779 4.09244 51.0479 4.0894C51.2608 4.07724 51.4752 4.07267 51.6881 4.06963C52.0987 4.06963 52.5093 4.06963 52.9198 4.05899C53.1418 4.05418 53.363 4.03181 53.5813 3.99208C53.7441 3.96471 53.9098 3.95102 54.0756 3.92821C54.2386 3.90386 54.4034 3.89318 54.5683 3.89627C54.7958 3.89347 55.0212 3.93909 55.2298 4.0301C55.307 4.07037 55.3754 4.12549 55.4313 4.1923C55.4871 4.2591 55.5292 4.33628 55.5552 4.41939C55.6267 4.62842 55.6681 4.84653 55.6784 5.0672C55.6917 5.26974 55.6917 5.47293 55.6784 5.67547C55.6677 5.86252 55.6556 6.04804 55.6358 6.23356C55.6206 6.36282 55.6099 6.4936 55.5963 6.62438C55.5826 6.75516 55.5552 6.91331 55.5385 7.05777C55.5217 7.20224 55.5065 7.35279 55.4883 7.49877C55.4624 7.70254 55.4563 7.90784 55.4487 8.10704C55.4487 8.26976 55.4366 8.43247 55.4259 8.59518C55.4107 8.8613 55.4107 9.12742 55.4092 9.39354C55.4151 9.51849 55.4095 9.6437 55.3925 9.76763C55.3859 9.83101 55.3565 9.88984 55.3098 9.93319C55.2631 9.97654 55.2022 10.0015 55.1385 10.0033C55.0581 10.0117 54.9771 10.0117 54.8967 10.0033C54.5789 10.0033 54.2611 9.99421 53.9418 9.98813C53.7425 9.98813 53.5433 9.979 53.3441 9.96532C53.2027 9.95619 53.0613 9.95467 52.9214 9.94099C52.6621 9.92301 52.405 9.99795 52.196 10.1524C52.0439 10.2527 51.8919 10.3348 51.7276 10.423C51.4691 10.5751 51.2091 10.715 50.946 10.8549C50.8162 10.9328 50.6816 11.0023 50.543 11.0633C50.4533 11.0952 50.391 11.0526 50.4138 10.9614C50.4462 10.782 50.4894 10.6048 50.543 10.4306C50.5761 10.3295 50.5935 10.2238 50.5947 10.1174C50.598 10.0813 50.5883 10.0453 50.5674 10.0158C50.5465 9.98621 50.5158 9.96509 50.4807 9.95619C50.3697 9.92583 50.2536 9.91961 50.14 9.93794C49.988 9.95467 49.8359 9.98509 49.6838 9.98813C49.1212 9.99877 48.5585 9.99573 47.9959 10.0064C47.8785 10.0143 47.7606 10.0046 47.6461 9.97748C47.596 9.96798 47.5494 9.94517 47.5112 9.91146C47.4729 9.87775 47.4444 9.83438 47.4287 9.78588C47.4158 9.71715 47.4189 9.64639 47.4378 9.57906C47.4636 9.44677 47.4774 9.31239 47.4789 9.1776C47.4789 8.93734 47.4788 8.69707 47.4712 8.4568C47.4732 8.29305 47.489 8.12976 47.5184 7.96866C47.5315 7.88045 47.5401 7.79163 47.5442 7.70254C47.5655 7.28588 47.561 6.86769 47.5518 6.4495C47.5518 6.12864 47.5427 5.80929 47.5518 5.48843C47.5607 5.24784 47.5886 5.00834 47.6355 4.77219C47.6513 4.66623 47.6727 4.56117 47.6993 4.45741C47.7169 4.38393 47.7582 4.31826 47.8167 4.27047C47.8752 4.22267 47.9477 4.19539 48.0233 4.19281C48.4918 4.1423 48.9635 4.12604 49.4344 4.14415Z" fill="#88D4C0"/>
<path d="M58.2542 11.3338C57.9288 11.3338 57.6049 11.3338 57.281 11.3338C57.1289 11.3338 56.9936 11.3034 56.8491 11.2897C56.7807 11.2821 56.7107 11.2821 56.6408 11.2791C56.4279 11.2669 56.2135 11.2624 56.0006 11.2593C55.59 11.2593 55.1794 11.2593 54.7688 11.2487C54.5469 11.2439 54.3257 11.2215 54.1073 11.1818C53.9446 11.1544 53.7789 11.1407 53.6131 11.1179C53.45 11.0936 53.2852 11.0829 53.1204 11.086C52.8927 11.0829 52.6671 11.1291 52.4589 11.2213C52.3816 11.2611 52.313 11.3158 52.2571 11.3824C52.2013 11.449 52.1592 11.5261 52.1335 11.6091C52.062 11.8181 52.0205 12.0362 52.0103 12.2569C51.9966 12.462 51.9966 12.6677 52.0103 12.8728C52.0209 13.0598 52.0331 13.2453 52.0529 13.4309C52.0681 13.5616 52.0787 13.6909 52.0924 13.8217C52.1061 13.9525 52.1335 14.1106 52.1502 14.2551C52.1669 14.3995 52.1821 14.5501 52.2004 14.6976C52.2262 14.9014 52.2323 15.1051 52.2399 15.3059C52.2399 15.4686 52.2521 15.6313 52.2627 15.7955C52.2779 16.0601 52.2779 16.3262 52.2795 16.5924C52.2736 16.7173 52.2792 16.8425 52.2962 16.9664C52.3028 17.0298 52.3322 17.0887 52.3789 17.132C52.4256 17.1754 52.4864 17.2003 52.5501 17.2022C52.6305 17.2105 52.7116 17.2105 52.7919 17.2022L53.7469 17.187C53.9461 17.187 54.1453 17.1869 54.3445 17.1641C54.486 17.155 54.6274 17.1535 54.7673 17.1398C55.0267 17.1224 55.2838 17.1979 55.4927 17.3527C55.6447 17.4515 55.7968 17.5337 55.961 17.6219C56.2196 17.7739 56.4796 17.9138 56.7427 18.0537C56.8725 18.1316 57.0071 18.2012 57.1457 18.2621C57.2354 18.294 57.2977 18.2529 57.2749 18.1602C57.2424 17.9809 57.1993 17.8036 57.1457 17.6295C57.1125 17.5283 57.095 17.4227 57.0939 17.3162C57.0907 17.2802 57.1003 17.2441 57.1213 17.2146C57.1422 17.185 57.1729 17.1639 57.208 17.155C57.3189 17.1247 57.4351 17.1184 57.5486 17.1368C57.7007 17.1535 57.8528 17.1839 58.0048 17.187C58.5675 17.1976 59.1301 17.1946 59.6928 17.2052C59.8102 17.2139 59.9282 17.2042 60.0426 17.1763C60.0926 17.1668 60.1393 17.144 60.1775 17.1103C60.2158 17.0766 60.2443 17.0332 60.26 16.9847C60.2729 16.916 60.2697 16.8452 60.2509 16.7779C60.225 16.6456 60.2113 16.5112 60.2098 16.3764C60.2098 16.1362 60.2098 15.8959 60.2098 15.6556C60.2078 15.4919 60.1921 15.3286 60.1627 15.1675C60.1495 15.0793 60.1409 14.9905 60.1368 14.9014C60.1155 14.4847 60.1201 14.0665 60.1368 13.6483C60.1368 13.3275 60.146 13.0081 60.1368 12.6873C60.128 12.4467 60.1 12.2072 60.0532 11.971C60.0372 11.8651 60.0159 11.76 59.9893 11.6562C59.9717 11.5828 59.9305 11.5171 59.872 11.4693C59.8135 11.4215 59.7409 11.3942 59.6654 11.3916C59.1971 11.3381 58.7254 11.3188 58.2542 11.3338Z" fill="#88D4C0"/>
<path d="M18.6204 70.4251C18.5626 67.7639 18.406 66.1262 17.8053 63.9455C17.5438 62.9951 17.2351 62.9647 16.309 62.8673L15.6308 62.8111C15.5859 62.4347 15.496 62.0651 15.3631 61.7101C15.0027 60.7627 14.1587 59.5964 12.1864 59.4291C10.795 59.3074 9.66205 59.7895 8.90779 60.822C8.61168 61.24 8.38284 61.7018 8.22956 62.1906C7.92542 62.1815 7.76423 62.1906 7.45097 62.1617C6.69063 62.107 6.10213 62.5343 5.66569 63.5152C5.05068 64.9201 4.54234 66.3693 4.14501 67.8506C3.90018 68.7934 3.78765 70.086 4.89014 70.2259C5.82384 70.4373 8.42573 70.7384 9.38984 70.8007C10.354 70.8631 11.9872 70.9893 12.9361 71.0745C13.6965 71.1414 16.5325 71.3664 17.2868 71.4121C17.9209 71.4501 18.6387 71.2646 18.6204 70.4251ZM10.0164 62.3062C9.77305 62.2971 9.51302 62.2804 9.25602 62.2606C9.76089 60.9087 10.7174 60.2837 12.1058 60.4069C13.2691 60.5072 14.0523 61.0562 14.4355 62.034C14.5213 62.2584 14.585 62.4907 14.6256 62.7274C14.4735 62.7138 14.3595 62.7016 14.3215 62.6955L10.0164 62.3062Z" fill="#88D4C0"/>
<path d="M45.1637 93.1274C45.0709 92.367 45.0435 92.0127 44.674 92.0386C43.941 92.0903 42.4538 92.6909 41.3057 93.1988C41.2905 93.0346 41.2753 92.8704 41.2601 92.7016C41.146 91.4607 40.7217 91.4379 39.928 91.485C39.8276 91.485 38.3738 91.6067 38.2278 91.6052L34.5539 91.85C34.0855 91.9093 33.5396 91.9397 33.0788 91.9884C32.7975 92.0218 32.2394 92.1404 31.9581 92.1663C30.8936 92.2575 31.1354 93.1091 31.1414 94.0595C31.1551 94.4549 31.1779 95.2457 31.2114 95.6395C31.2418 96.003 31.3194 97.0903 31.3559 97.4537C31.4486 98.3144 31.3559 99.4671 32.3048 99.4306C33.2646 99.4843 34.227 99.4711 35.1849 99.3911C35.9939 99.3241 37.3975 99.201 38.2081 99.1462C38.8513 99.1021 39.9979 99.0018 40.6412 98.9379C41.1764 98.8847 41.6661 98.6338 41.625 97.8901L41.584 97.1496C42.8188 97.5237 44.417 97.951 45.1302 97.9008C45.5332 97.8734 45.3963 96.7633 45.4009 96.482C45.4023 95.3595 45.323 94.2384 45.1637 93.1274Z" fill="#88D4C0"/>
<path d="M39.5583 87.0507C39.3219 86.8981 39.053 86.8032 38.7732 86.7739C38.4934 86.7446 38.2107 86.7816 37.9479 86.8819L32.9296 88.6793C32.635 88.7238 32.3684 88.879 32.1841 89.1132C31.9999 89.3475 31.9119 89.6431 31.9381 89.94C31.9372 90.1292 31.9877 90.3151 32.0841 90.4779C32.1805 90.6407 32.3192 90.7743 32.4856 90.8645C32.7203 90.9926 32.991 91.0392 33.255 90.9968L38.544 90.7155C38.7582 90.7256 38.9723 90.6931 39.1739 90.6197C39.3754 90.5464 39.5603 90.4337 39.7179 90.2882C40.5908 89.5142 40.8691 87.9098 39.5583 87.0507ZM33.6975 89.7985C33.6687 90.7611 32.4491 90.6532 32.4339 89.8928C32.3776 89.0215 33.7508 88.8922 33.6975 89.7985ZM34.1811 89.9506C34.1889 89.8911 34.1935 89.8312 34.1948 89.7712C34.2068 89.6131 34.1888 89.4541 34.1416 89.3028L36.6081 88.4086C36.5748 88.6568 36.595 88.9093 36.6674 89.1491C36.7398 89.3888 36.8627 89.6103 37.0278 89.7985L34.1811 89.9506ZM38.0558 89.3758C37.0552 88.5455 38.2353 87.4506 39.0047 87.9539C39.9917 88.5942 38.9758 90.1802 38.0558 89.3758Z" fill="#88D4C0"/>
<path d="M71.4705 100.327C71.2013 100.771 71.0706 100.847 71.0462 100.858H71.0295C70.5368 100.907 68.7287 99.7493 68.5493 99.4315C68.5493 99.3721 68.5736 99.1516 68.9386 98.519C69.2214 98.7547 69.5362 99.0011 69.8601 99.2444C70.222 99.5136 70.7588 99.8998 71.2652 100.201C71.3352 100.249 71.4036 100.291 71.4705 100.327Z" fill="#88D4C0"/>
<path d="M72.056 99.7191L71.9177 99.6522L71.8234 99.599L71.6713 99.5138L71.3261 99.2994C71.133 99.1732 70.9247 99.0302 70.7087 98.8751L70.6585 98.8401L70.2997 98.5771L69.9955 98.3414C69.8693 98.2425 69.7477 98.1452 69.6306 98.0509L69.5865 98.0159C69.4572 97.9095 69.3355 97.8076 69.223 97.7118L69.0862 97.5917C69.039 97.5506 68.9949 97.5096 68.9523 97.47C68.8626 97.3879 68.7866 97.3179 68.7151 97.2389L68.6999 97.2221C68.6725 97.1932 68.6482 97.1644 68.6163 97.1279L68.5889 97.0914C68.5823 97.0835 68.5766 97.0748 68.5722 97.0655C68.5281 96.8937 68.7516 96.4147 69.5043 95.6072C69.6321 95.742 69.7923 95.8976 69.9849 96.074C70.3985 96.4527 70.9323 96.8952 71.4888 97.321L71.793 97.546L72.0135 97.7072C72.088 97.7635 72.1655 97.8167 72.2385 97.87L72.3693 97.9627L72.6415 98.1498L72.6598 98.1619C72.7845 98.2456 72.9031 98.3231 73.0156 98.3931L73.0886 98.4387C73.2407 98.5284 73.3669 98.606 73.487 98.6713C72.8544 99.783 72.532 99.8712 72.4666 99.8772C72.4303 99.8742 72.3945 99.8666 72.3602 99.8544L72.3191 99.8408C72.2948 99.8408 72.2689 99.8225 72.2385 99.8103L72.2188 99.8012C72.1899 99.789 72.1579 99.7754 72.1184 99.7556L72.0819 99.7373L72.056 99.7191Z" fill="#88D4C0"/>
<path d="M82.7916 93.8293C82.6882 94.7068 82.5118 95.1234 82.4236 95.1812C82.3755 95.2015 82.3238 95.2124 82.2716 95.2131C82.048 95.225 81.8238 95.2138 81.6025 95.1797C81.6025 95.1143 81.6146 95.0474 81.6192 94.9759C81.6534 94.4063 81.6585 93.8353 81.6344 93.2651C81.6207 92.8667 81.5964 92.4714 81.5645 92.1079C82.5103 92.2037 82.746 92.339 82.7947 92.3786C82.854 92.5048 82.8798 93.0827 82.7916 93.8293Z" fill="#88D4C0"/>
<path d="M80.8318 94.0389V94.1012C80.8318 94.1833 80.8318 94.2624 80.8318 94.3415L80.7938 95.0729C80.7938 95.1459 80.7801 95.2159 80.7725 95.2782L80.7452 95.4531C80.7345 95.5109 80.7239 95.5641 80.7102 95.6052C80.7102 95.6204 80.7011 95.6356 80.6965 95.6538L80.6843 95.6888C80.6756 95.7127 80.6644 95.7357 80.6509 95.7572C80.6265 95.7861 80.5155 95.8865 80.1019 95.9276C79.8179 95.9491 79.5328 95.9491 79.2488 95.9276C79.2701 95.7496 79.2838 95.5246 79.2883 95.26V94.8403C79.2883 94.7855 79.2883 94.7293 79.2883 94.673L79.2473 93.7606L79.2336 93.569L79.2184 93.3774C79.1687 92.7248 79.086 92.0751 78.9705 91.4309C78.9295 91.2165 78.8869 91.0249 78.8413 90.8561C78.9705 90.8378 79.0937 90.8242 79.2108 90.812C80.2646 90.7101 80.5094 90.8819 80.5566 90.9321V90.9473C80.5566 90.9473 80.5566 90.961 80.5657 90.9732L80.6311 91.2499L80.6554 91.402L80.7193 91.9069C80.7284 91.992 80.7375 92.0818 80.7452 92.1715L80.7664 92.4482C80.7664 92.4984 80.7664 92.5501 80.7771 92.6003L80.8045 93.0778C80.8045 93.1402 80.8045 93.2025 80.8045 93.2648L80.8318 94.0389Z" fill="#88D4C0"/>
<path d="M78.4656 95.0626C78.4787 95.3898 78.4537 95.7174 78.3911 96.0389C78.3885 96.0481 78.3854 96.0573 78.3819 96.0662L78.3363 96.1104C78.2892 96.156 78.2314 96.2062 78.166 96.2624C77.4269 96.8798 76.037 97.6979 74.3643 98.1374H74.3384C74.2937 98.129 74.2499 98.1162 74.2077 98.0994C74.1559 98.0807 74.1051 98.0594 74.0556 98.0355C72.9774 97.5276 70.5413 95.6024 69.9497 94.8573C69.9181 94.8202 69.8897 94.7805 69.8646 94.7387C69.8588 94.7302 69.8542 94.721 69.8509 94.7113C69.8427 94.6893 69.8376 94.6663 69.8357 94.6429C69.8129 94.3509 70.0973 93.6712 70.7892 92.8181C71.4507 91.9984 72.2521 91.2974 72.9333 90.9598C73.8412 90.5192 74.8189 90.2403 75.8226 90.1356C76.0203 90.1158 76.2074 90.1067 76.3822 90.1067C77.0848 90.1067 77.5988 90.2588 77.833 90.5462L77.8451 90.5599C77.8718 90.5952 77.8942 90.6334 77.912 90.6739C77.9318 90.718 77.9531 90.7697 77.9729 90.826C78.2785 91.7171 78.4656 93.7852 78.4656 95.0626Z" fill="#88D4C0"/>
<path d="M96.0933 30.5684C96.0654 30.5701 96.0376 30.5626 96.0143 30.5471C95.9855 30.5279 95.9655 30.498 95.9586 30.4641C95.9518 30.4302 95.9587 30.395 95.9778 30.3661C96.0859 30.1993 96.1632 30.0144 96.2059 29.8202C96.2083 29.8021 96.2144 29.7848 96.2238 29.7693C96.2333 29.7537 96.2459 29.7403 96.2608 29.73C96.2758 29.7196 96.2927 29.7124 96.3106 29.7089C96.3284 29.7055 96.3468 29.7058 96.3645 29.7098C96.3823 29.7138 96.399 29.7215 96.4136 29.7324C96.4282 29.7432 96.4403 29.757 96.4493 29.7728C96.4583 29.7887 96.4638 29.8062 96.4656 29.8243C96.4675 29.8424 96.4655 29.8607 96.4598 29.878C96.4101 30.1029 96.3205 30.3172 96.1952 30.5106C96.1841 30.5276 96.169 30.5418 96.1513 30.5518C96.1336 30.5619 96.1137 30.5675 96.0933 30.5684Z" fill="#88D4C0"/>
<path d="M96.3987 29.3627C96.3641 29.3631 96.3308 29.35 96.3058 29.3261C96.2807 29.3022 96.2661 29.2695 96.2649 29.235C96.2672 29.027 96.2268 28.8208 96.1462 28.6291C96.0657 28.4374 95.9467 28.2642 95.7965 28.1203C95.5115 27.866 95.1484 27.7164 94.767 27.696C94.7498 27.6949 94.733 27.6904 94.7176 27.6827C94.7022 27.675 94.6884 27.6644 94.6771 27.6514C94.6658 27.6384 94.6572 27.6233 94.6517 27.6069C94.6463 27.5906 94.6441 27.5733 94.6454 27.5561C94.6465 27.539 94.6511 27.5223 94.6587 27.5069C94.6664 27.4916 94.6771 27.4779 94.6901 27.4667C94.7031 27.4556 94.7183 27.4471 94.7346 27.4418C94.7509 27.4365 94.7682 27.4346 94.7853 27.436C95.6338 27.4938 96.5021 28.0717 96.5264 29.2289C96.5268 29.2461 96.5239 29.2632 96.5177 29.2792C96.5115 29.2952 96.5022 29.3098 96.4903 29.3223C96.4784 29.3347 96.4642 29.3447 96.4485 29.3516C96.4328 29.3585 96.4159 29.3623 96.3987 29.3627Z" fill="#88D4C0"/>
<path d="M84.9298 31.1981C84.9019 31.1994 84.8743 31.192 84.8508 31.1769C84.8217 31.1579 84.8014 31.1282 84.7943 31.0942C84.7872 31.0603 84.7938 31.0249 84.8128 30.9959C84.9209 30.8291 84.9982 30.6442 85.0409 30.45C85.0447 30.4332 85.0517 30.4173 85.0616 30.4033C85.0716 30.3892 85.0842 30.3773 85.0987 30.3681C85.1132 30.3589 85.1295 30.3527 85.1464 30.3498C85.1634 30.3469 85.1807 30.3473 85.1975 30.3511C85.2143 30.3549 85.2301 30.362 85.2442 30.3719C85.2582 30.3818 85.2702 30.3944 85.2793 30.409C85.2885 30.4235 85.2947 30.4397 85.2977 30.4567C85.3006 30.4736 85.3001 30.491 85.2963 30.5078C85.2483 30.7335 85.1603 30.9488 85.0363 31.1434C85.0245 31.1606 85.0085 31.1746 84.99 31.1842C84.9714 31.1938 84.9507 31.1985 84.9298 31.1981Z" fill="#88D4C0"/>
<path d="M85.2338 29.9924C85.1994 29.9928 85.1662 29.9797 85.1414 29.9557C85.1167 29.9318 85.1023 29.8991 85.1015 29.8647C85.1036 29.6566 85.063 29.4504 84.9822 29.2586C84.9014 29.0669 84.782 28.8938 84.6316 28.75C84.347 28.4952 83.9837 28.3455 83.6021 28.3258C83.5841 28.326 83.5661 28.3224 83.5495 28.3154C83.5328 28.3083 83.5178 28.2979 83.5054 28.2847C83.493 28.2716 83.4835 28.256 83.4774 28.239C83.4713 28.222 83.4688 28.2039 83.4701 28.1858C83.4714 28.1678 83.4764 28.1502 83.4848 28.1342C83.4932 28.1182 83.5048 28.1041 83.5189 28.0928C83.533 28.0815 83.5493 28.0733 83.5668 28.0686C83.5843 28.064 83.6025 28.063 83.6204 28.0657C84.4689 28.1235 85.3372 28.7014 85.3616 29.8586C85.362 29.8758 85.359 29.8929 85.3528 29.9089C85.3466 29.9249 85.3373 29.9396 85.3254 29.952C85.3136 29.9644 85.2994 29.9744 85.2836 29.9813C85.2679 29.9883 85.251 29.992 85.2338 29.9924Z" fill="#88D4C0"/>
<path d="M97.3769 27.8922C97.2765 27.6869 96.3245 26.4658 96.1862 26.3C96.1862 26.3 95.3391 25.3511 95.0639 25.0302C94.7045 24.6121 94.2327 24.306 93.7044 24.1482C92.8711 23.8897 92.056 24.0768 91.2865 24.4919C90.5992 24.8614 89.9757 25.4363 89.7552 26.3167C89.4692 26.2222 89.1679 26.1824 88.8671 26.1996C88.5771 26.2147 88.2924 26.2838 88.0277 26.4034C87.2932 24.4798 85.4517 23.9277 83.9218 24.7763C83.4428 25.0424 82.9729 25.2644 82.6658 25.7298C82.6655 25.7338 82.6655 25.7379 82.6658 25.7419L82.6566 25.7541C82.6561 25.7586 82.6561 25.7632 82.6566 25.7678L82.6475 25.7799L82.6384 25.7921C82.6389 25.7967 82.6389 25.8012 82.6384 25.8058L82.6034 25.821C82.6037 25.825 82.6037 25.8291 82.6034 25.8332L82.5943 25.8469C82.5935 25.8509 82.5935 25.855 82.5943 25.859L82.5852 25.8712L82.576 25.8849C82.5758 25.8889 82.5758 25.893 82.576 25.897L82.5669 25.9092C82.5664 25.9137 82.5664 25.9183 82.5669 25.9229L82.5578 25.935L82.5487 25.9472C82.5467 25.9521 82.5442 25.9567 82.5411 25.9609L82.5319 25.9731C82.5298 25.9773 82.5272 25.9814 82.5243 25.9852L82.5152 25.9989C82.5147 26.003 82.5147 26.007 82.5152 26.0111L82.5061 26.0232L82.497 26.0369L82.4894 26.0491L82.4802 26.0613C82.4771 26.0655 82.4746 26.0701 82.4726 26.075L82.4635 26.0871L82.4544 26.0993C82.4549 26.1038 82.4549 26.1084 82.4544 26.113L82.4453 26.1251C82.4456 26.1292 82.4456 26.1332 82.4453 26.1373L82.4361 26.151C82.4331 26.1547 82.4305 26.1588 82.4285 26.1632L82.4194 26.1753L82.4103 26.189V26.2012L82.4012 26.2133C82.4007 26.2179 82.4007 26.2225 82.4012 26.227L82.392 26.2392L82.3829 26.2529V26.265L82.2993 26.2772V26.2909L82.2902 26.3031C82.2897 26.3071 82.2897 26.3112 82.2902 26.3152L82.281 26.3289L82.2719 26.3411L82.2643 26.3532L82.2552 26.3669C82.2544 26.3709 82.2544 26.3751 82.2552 26.3791L82.2461 26.3913L82.2369 26.4049L82.2293 26.4171L82.2202 26.4293L82.2126 26.443L82.2035 26.4551C82.2004 26.4588 82.1978 26.4629 82.1959 26.4673L82.1868 26.481L82.1776 26.4931V26.5053L82.1685 26.519C82.1651 26.5224 82.1625 26.5266 82.1609 26.5312L82.1518 26.5433L82.1426 26.557V26.5692L82.1335 26.5813V26.595L82.1244 26.6072V26.6194L82.1153 26.633L82.1062 26.6452C82.1069 26.6492 82.1069 26.6534 82.1062 26.6574L82.097 26.6711C82.0963 26.6751 82.0963 26.6792 82.097 26.6832L82.0879 26.6954L82.0788 26.7091L82.0712 26.7212L81.9951 26.7334V26.7471L81.986 26.7593V26.7714L81.9769 26.7851L81.9678 26.7973C81.9656 26.8015 81.963 26.8056 81.9602 26.8094L81.951 26.8231C81.9477 26.8266 81.9451 26.8307 81.9434 26.8353L81.9343 26.8475L81.9252 26.8611L81.9176 26.8733L81.9085 26.8855L81.9009 26.8992L81.8917 26.9113L81.8841 26.9235L81.875 26.9372L81.8659 26.9493C81.8662 26.9534 81.8662 26.9575 81.8659 26.9615L81.8568 26.9752C81.8537 26.9789 81.8511 26.983 81.8492 26.9874L81.84 26.9995L81.8309 27.0132C81.8314 27.0173 81.8314 27.0213 81.8309 27.0254L81.8218 27.0375V27.0512L81.8127 27.0634V27.0756L81.8035 27.0892L81.7944 27.1014C81.7947 27.1055 81.7947 27.1095 81.7944 27.1136L81.7853 27.1273C81.7848 27.1313 81.7848 27.1354 81.7853 27.1394L81.7762 27.1516L81.767 27.1653C81.7651 27.1697 81.7625 27.1738 81.7594 27.1774L81.691 27.1896V27.2033L81.6819 27.2155C81.6814 27.22 81.6814 27.2246 81.6819 27.2292L81.6728 27.2413L81.6636 27.2535L81.656 27.2672L81.6469 27.2793C81.6438 27.283 81.6413 27.2871 81.6393 27.2915L81.6302 27.3052L81.6211 27.3173C81.6215 27.3214 81.6215 27.3255 81.6211 27.3295L81.6119 27.3432C81.6091 27.347 81.6065 27.3511 81.6043 27.3554L81.5952 27.3675C81.5921 27.3718 81.5896 27.3764 81.5876 27.3812L81.5785 27.3934L81.5694 27.4056C81.5699 27.4101 81.5699 27.4147 81.5694 27.4192L81.5602 27.4314C81.5598 27.4354 81.5598 27.4395 81.5602 27.4436L81.5511 27.4573L81.542 27.4694C81.5424 27.4735 81.5424 27.4775 81.542 27.4816L81.5329 27.4953C81.5326 27.4993 81.5326 27.5034 81.5329 27.5074L81.5237 27.5196C81.5232 27.5242 81.5232 27.5287 81.5237 27.5333L81.5146 27.5455L81.5055 27.5576C81.506 27.5622 81.506 27.5668 81.5055 27.5713L81.4964 27.5835C81.4959 27.5875 81.4959 27.5916 81.4964 27.5956L81.4872 27.6093L81.4781 27.6215C81.4765 27.626 81.4739 27.6302 81.4705 27.6337L81.3869 27.6458C81.384 27.6497 81.3815 27.6537 81.3793 27.658L81.3701 27.6701C81.3696 27.6747 81.3696 27.6793 81.3701 27.6838L81.361 27.696L81.3519 27.7082C81.3499 27.713 81.3474 27.7176 81.3443 27.7219L81.3352 27.734L81.3276 27.7462L81.3184 27.7599L81.3093 27.772C81.3101 27.7761 81.3101 27.7802 81.3093 27.7842L81.3002 27.7979C81.2999 27.8019 81.2999 27.806 81.3002 27.81L81.2911 27.8222C81.288 27.8264 81.2854 27.831 81.2835 27.8359L81.2743 27.8481L81.2652 27.8602C81.2657 27.8648 81.2657 27.8694 81.2652 27.8739L81.2561 27.8861V27.8983L81.247 27.9119L81.2378 27.9241C81.2386 27.9281 81.2386 27.9322 81.2378 27.9363L81.2287 27.95V27.9621L81.2196 27.9743C81.2191 27.9788 81.2191 27.9834 81.2196 27.988L81.2105 28.0001L81.2014 28.0123C81.1994 28.0172 81.1968 28.0218 81.1937 28.026L81.1846 28.0382V28.0503L81.1755 28.064L81.1664 28.0762C81.1647 28.0807 81.1622 28.0849 81.1588 28.0883L81.0827 28.102L81.0751 28.1142L81.066 28.1264C81.0629 28.1306 81.0604 28.1352 81.0584 28.14L81.0493 28.1522L81.0402 28.1644C81.0382 28.1692 81.0356 28.1738 81.0325 28.1781L81.0234 28.1902L81.0158 28.2024L81.0067 28.2161L80.9976 28.2282C80.9981 28.2328 80.9981 28.2374 80.9976 28.2419C80.8741 28.4261 80.7749 28.6254 80.7026 28.835C80.5554 29.2553 80.5035 29.703 80.5505 30.1458C80.9018 33.9779 85.1795 33.6951 86.3139 31.3761L86.323 31.3639V31.3502L86.3321 31.338V31.3259L86.3413 31.3122L86.3504 31.3C86.352 31.2955 86.3546 31.2913 86.358 31.2879L86.3671 31.2742C86.3702 31.2705 86.3727 31.2664 86.3747 31.262L86.3838 31.2498L86.393 31.2361C86.3925 31.2321 86.3925 31.228 86.393 31.224L86.4021 31.2118L86.4097 31.1981L86.4188 31.186L86.4264 31.1738L86.4355 31.1601L86.4447 31.1479C86.4442 31.1434 86.4442 31.1388 86.4447 31.1343L86.4538 31.1221C86.4543 31.1181 86.4543 31.114 86.4538 31.1099L86.4629 31.0962L86.472 31.0841C86.4716 31.08 86.4716 31.076 86.472 31.0719L86.4812 31.0582C86.4814 31.0542 86.4814 31.0501 86.4812 31.0461L86.4903 31.0339C86.4908 31.0293 86.4908 31.0248 86.4903 31.0202L86.4994 31.008L86.5572 30.9913C86.5567 30.9868 86.5567 30.9822 86.5572 30.9776L86.5663 30.9655C86.5668 30.9614 86.5668 30.9573 86.5663 30.9533L86.5754 30.9396L86.5846 30.9274C86.5865 30.9231 86.5891 30.919 86.5922 30.9153L86.6013 30.9016C86.6042 30.8978 86.6067 30.8937 86.6089 30.8894L86.618 30.8773C86.6185 30.8727 86.6185 30.8681 86.618 30.8636L86.6271 30.8514L86.6363 30.8393C86.6382 30.8344 86.6408 30.8298 86.6439 30.8256L86.653 30.8134C86.6561 30.8097 86.6586 30.8056 86.6606 30.8012L86.6697 30.7875L86.6788 30.7754C86.6784 30.7713 86.6784 30.7673 86.6788 30.7632L86.688 30.7495C86.6908 30.7457 86.6934 30.7416 86.6956 30.7374L86.7047 30.7252C86.7078 30.721 86.7104 30.7164 86.7123 30.7115L86.7214 30.6993L86.7306 30.6872C86.73 30.6826 86.73 30.678 86.7306 30.6735L86.7397 30.6613V30.6492L86.7488 30.6355L86.7579 30.6233C86.7572 30.6193 86.7572 30.6152 86.7579 30.6111L86.767 30.5975C86.7673 30.5934 86.7673 30.5893 86.767 30.5853L86.7762 30.5731C86.7767 30.5686 86.7767 30.564 86.7762 30.5594L86.7853 30.5473L86.8613 30.5351C86.8608 30.5306 86.8608 30.526 86.8613 30.5214L86.8705 30.5093V30.4971L86.8796 30.4834L86.8887 30.4712C86.8903 30.4667 86.8929 30.4625 86.8963 30.4591L86.9054 30.4454L86.913 30.4332L86.9222 30.4211C86.9227 30.4165 86.9227 30.4119 86.9222 30.4074L86.9313 30.3952L86.9404 30.383C86.9424 30.3782 86.9449 30.3736 86.948 30.3694L86.9571 30.3572L86.9647 30.345L86.9739 30.3313L86.983 30.3192C86.9822 30.3152 86.9822 30.311 86.983 30.307L86.9921 30.2933V30.2812L87.0012 30.269C87.0043 30.2648 87.0069 30.2602 87.0088 30.2553L87.018 30.2431L87.0271 30.231C87.0266 30.2264 87.0266 30.2218 87.0271 30.2173L87.0362 30.2051V30.193L87.0453 30.1793L87.0545 30.1671C87.054 30.1626 87.054 30.158 87.0545 30.1534L87.0636 30.1413V30.1291L87.0727 30.1154C87.0734 30.1114 87.0734 30.1073 87.0727 30.1032L87.0818 30.0911L87.1655 30.0789L87.1731 30.0667L87.1822 30.0546C87.1827 30.05 87.1827 30.0454 87.1822 30.0409L87.1913 30.0287L87.2004 30.0166C87.2024 30.0117 87.2049 30.0071 87.208 30.0029L87.2172 29.9907L87.2248 29.9785L87.2339 29.9649C87.2373 29.9614 87.2399 29.9573 87.2415 29.9527L87.2506 29.9405L87.2597 29.9268V29.9147L87.2689 29.9025C87.272 29.8983 87.2745 29.8937 87.2765 29.8888L87.2856 29.8767L87.2947 29.8645C87.2942 29.8599 87.2942 29.8554 87.2947 29.8508L87.3038 29.8386V29.8265L87.313 29.8128C87.3137 29.8088 87.3137 29.8046 87.313 29.8006L87.3221 29.7885L87.3312 29.7748V29.7626L87.3403 29.7504C87.3408 29.7459 87.3408 29.7413 87.3403 29.7368L87.3495 29.7246L87.3586 29.7124C87.3605 29.7076 87.3631 29.703 87.3662 29.6987L87.3753 29.6866C87.375 29.6825 87.375 29.6785 87.3753 29.6744L87.3844 29.6607C87.3852 29.6567 87.3852 29.6526 87.3844 29.6486L87.3936 29.6364L87.4696 29.6227L87.4772 29.6105L87.4863 29.5984C87.4894 29.5941 87.492 29.5896 87.4939 29.5847L87.5031 29.5725L87.5122 29.5604C87.5141 29.5555 87.5167 29.5509 87.5198 29.5467L87.5289 29.5345C87.5311 29.5302 87.5336 29.5262 87.5365 29.5223L87.5456 29.5087C87.5487 29.505 87.5513 29.5009 87.5532 29.4965L87.5624 29.4843L87.5715 29.4706C87.571 29.4666 87.571 29.4625 87.5715 29.4585L87.5806 29.4463V29.4387C87.6445 29.3657 87.7038 29.2866 87.76 29.2136C88.1527 29.4253 88.5929 29.5331 89.0389 29.5269C89.4952 29.501 89.9696 29.2486 90.3194 29.0175C90.3955 29.1068 90.4773 29.1911 90.5642 29.2699V29.2775L90.5733 29.2882L90.584 29.3003L90.5931 29.3125L90.6037 29.3231L90.6128 29.3353L90.6235 29.3475L90.6326 29.3581L90.6433 29.3703L90.6524 29.3809L90.663 29.3931L90.6722 29.4052L90.6828 29.4159L90.6919 29.4281L90.7026 29.4402L90.7117 29.4509C90.7144 29.4556 90.718 29.4597 90.7223 29.463L90.7315 29.4752L90.7421 29.4858L90.7512 29.498L90.7619 29.5102L90.771 29.5208L90.7817 29.533L90.7908 29.5451L90.8014 29.5558L90.8105 29.568L90.8197 29.5801C90.8236 29.5833 90.8272 29.5869 90.8303 29.5908L90.8394 29.6029L90.8501 29.6151L90.8592 29.6257L90.8698 29.6379L90.879 29.6501L90.8896 29.6607L90.8987 29.6729C90.9031 29.6762 90.9067 29.6803 90.9094 29.6851L90.9185 29.6957L90.9292 29.7079L90.9383 29.72L90.9489 29.7307L90.958 29.7428L90.9687 29.755L90.9778 29.7656L90.9885 29.7778L90.9976 29.7885L91.0082 29.8006L91.0174 29.8128L91.028 29.8234L91.0371 29.8356L91.0478 29.8478L91.0569 29.8584C91.0596 29.8631 91.0632 29.8673 91.0675 29.8706L91.0767 29.8827C91.0798 29.8867 91.0834 29.8902 91.0873 29.8934L91.0964 29.9055L91.1071 29.9177L91.1162 29.9284L91.1268 29.9405L91.136 29.9527L91.1451 29.9633L91.1557 29.9755L91.1649 29.9877L91.1755 29.9983L91.1846 30.0105L91.1953 30.0226L91.2044 30.0333L91.215 30.0455L91.2242 30.0576L91.2348 30.0683L91.2439 30.0804L91.2546 30.0926L91.2637 30.1032L91.2744 30.1154L91.2835 30.1276L91.2941 30.1382L91.3032 30.1504L91.3139 30.1625L91.323 30.1732L91.3337 30.1854L91.3428 30.196L91.3534 30.2082L91.3625 30.2203L91.3732 30.231L91.3823 30.2431L91.393 30.2553L91.4021 30.266C91.4048 30.2707 91.4084 30.2748 91.4127 30.2781L91.4219 30.2903C91.425 30.2942 91.4286 30.2978 91.4325 30.3009L91.4416 30.3131L91.4523 30.3253L91.4614 30.3359L91.472 30.3481L91.4812 30.3602L91.4903 30.3709L91.5009 30.383L91.5101 30.3952L91.5207 30.4059L91.5298 30.418L91.5405 30.4302L91.5496 30.4408L91.5602 30.453L91.5694 30.4652L91.58 30.4758L91.5891 30.488L91.5998 30.5001L91.6089 30.5108L91.6195 30.523L91.6287 30.5351L91.6393 30.5458L91.6484 30.5579L91.6591 30.5701L91.6682 30.5807L91.6788 30.5929L91.688 30.6035L91.6986 30.6157L91.7077 30.6279C91.7109 30.6318 91.7145 30.6354 91.7184 30.6385L91.7275 30.6507L91.7382 30.6629L91.7473 30.6735C91.75 30.6782 91.7536 30.6824 91.7579 30.6857L91.7671 30.6978L91.7777 30.7085L91.7868 30.7206L91.7975 30.7328L91.8066 30.7434L91.8157 30.7556L91.8264 30.7678L91.8355 30.7784L91.8461 30.7906L91.8553 30.8028L91.8659 30.8134L91.875 30.8256L91.8857 30.8377L91.8948 30.8484L91.9054 30.8605L91.9146 30.8727L91.9252 30.8834L91.9343 30.8955L91.945 30.9077L91.9541 30.9183L91.9647 30.9305L91.9739 30.9427L91.9845 30.9533L91.9936 30.9655L92.0043 30.9776L92.0134 30.9883L92.024 31.0004L92.0332 31.0111C92.0359 31.0158 92.0395 31.0199 92.0438 31.0233L92.0529 31.0354L92.0621 31.0461C93.452 33.2237 97.7342 33.023 97.6521 29.1771C97.6543 28.734 97.5604 28.2956 97.3769 27.8922ZM86.0037 29.8447C86.0812 33.5202 81.1922 33.0458 81.1755 30.1397C81.0052 26.8094 85.9368 26.7228 86.0037 29.8447ZM97.0788 29.2212C97.1579 32.8967 92.2674 32.4147 92.2521 29.5163C92.0803 26.1844 97.0134 26.0978 97.0788 29.2212Z" fill="#88D4C0"/>
</g>
<defs>
<clipPath id="clip0_522_50">
<rect width="109" height="106" fill="white"/>
</clipPath>
</defs>
</svg>
