<svg width="96" height="87" viewBox="0 0 96 87" fill="none" xmlns="http://www.w3.org/2000/svg">
<g clip-path="url(#clip0_522_41)">
<path d="M42.3345 36.2116L47.684 36.1504C47.7495 35.2106 47.8178 34.2339 47.8876 33.2571C46.1248 33.2571 44.3763 33.2784 42.6321 33.2955C42.5367 34.1499 42.4356 35.1523 42.3345 36.2116Z" fill="#9182C5"/>
<path d="M41.4331 47.9757C43.2358 47.9913 45.1481 47.9757 46.9564 47.9558C47.0219 46.7896 47.0874 45.5964 47.15 44.4758L41.6297 44.5285C41.5642 45.5195 41.4972 46.7013 41.4331 47.9757Z" fill="#9182C5"/>
<path d="M88.3491 8.63678C89.3785 8.7094 91.0231 9.65483 90.7284 11.9487C89.1806 26.3996 88.6823 34.943 87.4406 49.4338C86.807 56.8152 85.8744 67.2323 85.8744 67.2323C85.6451 70.2865 83.4908 70.7649 82.4129 70.7706C71.758 71.2248 62.3661 70.6681 58.0148 70.6681C54.1219 70.6681 49.3134 70.7436 47.367 70.7706C46.2863 70.7848 44.804 69.6756 45.1158 67.3092C45.5031 64.3019 45.8748 60.241 46.3105 56.163C44.3882 56.1431 42.8732 56.116 41.0421 56.0946C40.8698 60.0687 40.4184 64.6764 40.1878 68.5792C40.0796 70.9628 40.1551 75.7115 40.0312 78.095C39.3548 87.0911 45.3579 85.5718 51.734 86.0816C54.3995 86.1969 59.7277 86.4717 62.4131 86.4219C64.8878 86.3763 72.2678 86.3621 74.7439 86.2795C80.6231 85.9947 88.238 87.44 89.1949 79.4591C90.5646 72.6444 91.9258 62.1775 92.4028 55.2361C92.9368 48.3886 93.8097 36.5192 94.4191 29.6704C94.9018 24.244 95.6094 14.5402 95.9583 9.1138C96.2431 4.58302 95.1652 0.321321 90.1204 0.224497C79.2192 0.0151866 67.9605 -0.138592 54.8936 0.224497C46.4272 0.459437 45.7708 4.00915 45.0916 10.7057C45.0048 11.56 44.0379 23.841 43.8486 25.0683C45.4561 25.0883 47.0566 25.1054 48.5388 25.1296C48.8236 22.3843 49.7548 13.4794 49.9129 11.0574C50.0197 9.40568 51.0221 8.38192 52.1 8.36341C54.8837 8.31785 68.6938 8.39615 71.4718 8.42748C75.6837 8.47304 84.1372 8.34204 88.3491 8.63678ZM67.3953 78.2773C66.9282 82.9547 61.022 82.0164 61.2114 78.3058C61.237 74.0413 67.9648 73.8789 67.3953 78.2773Z" fill="#9182C5"/>
<path d="M58.1682 29.8953C57.7923 29.9365 57.4137 29.9465 57.0362 29.9252C52.2093 29.7187 45.7805 29.6006 39.3474 29.7985C38.1285 29.7444 26.2477 30.2883 25.0331 30.4221C24.6752 30.4437 24.3163 30.4461 23.9581 30.4292C23.8229 30.4213 23.693 30.3743 23.5841 30.2939C23.4751 30.2136 23.3918 30.1033 23.3444 29.9765C23.1978 29.4419 23.1861 28.8793 23.3102 28.339C23.3657 28.1069 23.6107 27.9845 24.0905 27.9246C25.3863 27.7068 36.3828 27.2526 37.6971 27.2512C42.4856 26.9949 51.5899 27.2142 56.3826 27.3039C56.9266 27.3039 57.4705 27.2911 58.0144 27.348C58.5014 27.3993 58.7022 27.4904 58.7591 27.7424C58.8848 28.297 58.9478 28.8639 58.9471 29.4325C58.9527 29.6817 58.6452 29.817 58.1682 29.8953Z" fill="#9182C5"/>
<path d="M3.36441 44.0558C3.7033 44.0558 11.0534 43.116 11.4421 43.0932C16.1081 42.5308 15.7251 42.5094 21.9717 42.0296C22.5597 41.974 29.1551 41.4315 35.7648 41.2023C42.373 40.9261 48.9926 40.9645 49.5764 40.9617C49.9258 40.9618 50.2748 40.9404 50.6215 40.8976C50.7593 40.8731 50.8867 40.8086 50.988 40.7121C51.0893 40.6157 51.1599 40.4914 51.1911 40.3551C51.2992 39.7519 51.2749 39.1324 51.1199 38.5396C51.0515 38.2862 50.8052 38.1666 50.3339 38.131C49.6988 38.0826 43.2373 38.0157 36.7885 38.2521C30.3355 38.4443 23.8953 38.9369 23.2617 38.9711C18.5942 39.216 16.4484 39.6246 11.7909 40.0133C11.2612 40.0319 3.68619 40.9374 3.16933 41.0812C2.70229 41.1852 2.52004 41.3134 2.49868 41.6081C2.45154 42.2693 2.46729 42.9334 2.54568 43.5916C2.57416 43.8849 2.89311 44.0187 3.36441 44.0558Z" fill="#9182C5"/>
<path d="M30.4753 53.0477C30.1321 53.1274 29.7822 53.1751 29.4302 53.1901C24.9492 53.4848 23.8272 53.4749 17.8754 54.147C16.7363 54.1584 2.92464 56.119 1.81401 56.3867C1.4839 56.4381 1.15111 56.4703 0.817295 56.4835C0.6873 56.4839 0.560146 56.4456 0.451905 56.3737C0.343663 56.3017 0.259207 56.1992 0.209296 56.0791C0.0258526 55.5496 -0.0340509 54.9851 0.0341615 54.4289C0.0654868 54.1911 0.280502 54.0473 0.720481 53.9476C1.89945 53.5888 14.9294 51.7875 16.1539 51.7107C20.5807 51.1169 24.159 51.087 28.6015 50.6656C29.1041 50.6186 29.7804 50.5645 30.2916 50.5232C30.8611 50.4833 30.9879 50.5673 31.0605 50.8079C31.2527 51.4558 31.0833 51.8345 31.1545 52.4938C31.1844 52.7544 30.911 52.9267 30.4753 53.0477Z" fill="#9182C5"/>
<path d="M51.1412 52.4567C50.8194 52.5094 48.9015 52.5037 48.5341 52.5008C46.5407 52.4496 41.0616 52.5322 39.2362 52.6133C38.1056 52.6304 35.9612 52.7472 34.8221 52.7828C34.4898 52.796 34.157 52.7894 33.8254 52.7628C33.6986 52.7495 33.5789 52.698 33.482 52.6151C33.3851 52.5322 33.3157 52.4219 33.2829 52.2987C33.1798 51.7596 33.2032 51.2039 33.3513 50.6754C33.4168 50.4476 33.6503 50.3322 34.1002 50.2867C35.3148 50.1614 36.5636 50.1443 37.7852 50.0816C39.8185 49.962 46.572 49.8723 47.9617 49.9008C48.4672 49.888 50.5403 49.8723 51.0458 49.9179C51.4986 49.9563 51.6851 50.0446 51.7321 50.2938C51.8397 50.8476 51.8874 51.4114 51.8745 51.9754C51.8745 52.2303 51.5898 52.3769 51.1412 52.4567Z" fill="#9182C5"/>
<path d="M7.24174 29.3786C7.57777 29.2775 9.64096 29.0383 10.0382 29.0013C12.184 28.8034 12.4204 28.7806 14.3896 28.5741C15.6099 28.4687 17.9237 28.2224 19.1468 28.1399C19.5073 28.1129 19.869 28.1057 20.2304 28.1184C20.3662 28.125 20.4971 28.171 20.6073 28.2506C20.7175 28.3302 20.8023 28.4402 20.8512 28.567C21.002 29.102 21.0181 29.666 20.8981 30.2087C20.844 30.4408 20.6034 30.5647 20.1278 30.6359C18.8392 30.8139 17.5122 30.8979 16.2165 31.0446C14.0607 31.2766 12.5286 31.4332 11.0563 31.5884C10.5224 31.6554 8.33241 31.9359 7.79134 31.9629C7.30579 31.9843 7.09366 31.9216 6.99826 31.6781C6.78491 31.1306 6.63166 30.5615 6.5412 29.9809C6.49421 29.7189 6.77755 29.5324 7.24174 29.3786Z" fill="#9182C5"/>
</g>
<defs>
<clipPath id="clip0_522_41">
<rect width="96" height="87" fill="white"/>
</clipPath>
</defs>
</svg>
