<svg width="99" height="96" viewBox="0 0 99 96" fill="none" xmlns="http://www.w3.org/2000/svg">
<g clip-path="url(#clip0_522_80)">
<path d="M30.4865 61.1567C30.6422 60.4117 31.0202 59.7546 31.2871 59.054C31.9473 57.3391 32.7663 55.6896 33.7334 54.127C34.9898 52.0811 36.7589 50.5933 38.9828 49.5558C40.4183 48.8887 41.8194 48.4105 43.3872 48.7108C44.5214 48.922 45.6111 49.3223 46.7019 49.7004C48.6589 50.3798 49.9377 51.7364 50.4825 53.6934C50.9606 55.418 50.9384 57.1749 50.6382 58.9651C50.3936 60.4339 49.4807 61.3791 48.6367 62.4243C47.9806 63.2249 47.2912 63.9922 46.6463 64.7928C46.4787 65.0117 46.2712 65.1969 46.0347 65.3387C44.299 66.3172 42.4421 66.9844 40.5184 67.4514C40.0614 67.5626 39.5833 67.4514 39.3164 66.9844C39.0495 66.5174 38.9606 66.0615 39.3053 65.5722C39.5009 65.284 39.7284 65.0188 39.9836 64.7816C40.7297 64.0811 40.8075 63.136 40.6963 62.2575C40.5184 60.8565 39.2386 60.3895 37.8709 60.7898C36.0807 61.2901 35.2567 62.7245 34.2893 64.07C33.8334 64.7149 33.4554 65.4043 33.0328 66.0837C32.6548 66.6842 32.1544 66.9288 31.5428 66.8065C30.9535 66.673 30.7867 66.1838 30.6422 65.6834C30.3964 64.815 30.5866 63.9254 30.4865 63.047C30.442 62.4177 30.442 61.786 30.4865 61.1567Z" fill="#E7696B"/>
<path d="M98.7951 7.86021C98.4615 6.63708 98.4393 5.32388 97.6832 4.21194C96.9938 3.20007 96.5935 1.93246 95.1913 1.58665C94.9301 1.50221 94.677 1.39428 94.4352 1.26418C92.6672 0.430228 90.8103 -0.0701453 88.8633 0.00769051C87.6179 0.0632875 86.3725 0.296795 85.126 0.419108C83.9991 0.525713 82.9 0.830626 81.8792 1.31978C80.934 1.77679 80.0322 2.34388 79.0204 2.61074C77.7626 2.93528 76.58 3.5018 75.5389 4.27865C74.5554 5.03375 73.5268 5.72815 72.4588 6.35798C71.8768 6.67908 71.3223 7.04764 70.8009 7.45991C69.9892 8.1382 69.2331 8.87208 68.388 9.517C66.1741 11.196 63.9058 12.8206 62.0933 14.9555C61.5262 15.6227 60.9247 16.2454 60.4021 16.957C59.711 17.9126 58.9725 18.8329 58.1893 19.7146C57.5666 20.404 56.766 20.9155 56.1089 21.5838C55.9198 21.7728 55.6974 22.0397 55.4194 22.1064C54.2074 22.4289 53.0177 22.8292 51.7723 23.0182C51.5499 23.1294 51.3042 23.0071 51.0818 23.096C50.7482 23.1071 50.4257 23.1183 50.0921 23.1183C49.8809 23.2295 49.6362 23.1183 49.4139 23.1961C47.9572 23.1961 46.5773 23.6186 45.1885 23.9633C42.8312 24.5415 40.6507 25.5868 38.4935 26.6665C37.1369 27.3447 35.757 28.0675 34.6673 29.1572C34.1336 29.7021 33.4219 30.0912 33.055 30.7929C32.4879 31.8826 31.943 32.9723 31.3971 34.0731C31.3128 34.22 31.2595 34.3826 31.2404 34.5509C31.2212 34.7191 31.2367 34.8895 31.2859 35.0516C31.4749 35.6643 32.0198 35.9534 32.3878 36.4093C32.866 36.9986 33.4664 37.3322 34.2448 37.2321C34.5784 37.1098 34.9342 37.2432 35.2678 37.1543C35.3789 37.1432 35.4901 37.1432 35.6013 37.132C37.3927 37.0542 39.1595 37.5101 40.9509 37.4879C41.3289 37.5879 41.7181 37.4434 42.0973 37.5657C42.7908 37.4957 43.4891 37.6392 44.0988 37.9771C45.0551 38.4775 46.0336 38.9111 47.0243 39.3337C48.5254 39.9786 49.5929 41.0472 50.0821 42.5817C50.3756 43.4977 50.7631 44.3808 51.2385 45.217C52.4406 47.3297 54.1974 48.6428 56.6448 48.9431C56.9117 49.0209 57.1897 48.9097 57.4454 49.0209C57.7011 49.0209 57.9569 49.032 58.2238 49.0209C58.8464 49.0098 59.2245 49.2878 59.4691 49.8771C59.7138 50.4442 59.9139 51.0346 60.1029 51.6128C60.67 53.3808 61.2371 55.1488 61.4373 57.018C61.5829 58.3634 61.8387 59.6866 61.7164 61.0443C61.6274 61.5225 61.772 62.0228 61.6385 62.501C61.683 63.5462 62.0166 64.5247 62.2501 65.5266C62.2929 65.7249 62.3961 65.9051 62.5454 66.0424C62.6947 66.1798 62.8829 66.2676 63.0841 66.2938C63.3005 66.3383 63.5237 66.3383 63.7401 66.2938C64.2627 66.0158 64.7853 65.7489 65.2968 65.471C65.6971 65.2486 66.1652 65.0818 66.4655 64.7582C67.4217 63.6907 68.4447 62.6789 69.2008 61.4446C69.8569 60.366 70.524 59.3086 70.7131 58.0076C70.8699 56.929 71.3035 55.9394 71.8595 55.0054C72.1708 54.4716 72.5489 53.9602 72.7046 53.3486C73.4273 50.5576 74.1278 47.7655 73.9722 44.84C73.9388 44.2285 74.2057 43.8393 74.7172 43.5502C75.5289 43.0943 76.3973 42.694 77.1312 42.1158C79.6219 40.1688 82.1472 38.2451 84.2476 35.8322C85.2817 34.6524 86.5282 33.6628 87.5067 32.4285C88.3629 31.35 89.1413 30.2047 90.0642 29.1694C90.8548 28.2799 91.6665 27.4015 92.1769 26.2895C92.719 25.143 93.3706 24.0515 94.1227 23.0304C95.3125 21.3514 96.3589 19.5934 97.0483 17.6364C97.795 15.4774 98.324 13.2491 98.6272 10.9848C98.784 9.95066 99.0842 8.91656 98.7951 7.86021ZM88.7187 18.2924C87.9404 19.7046 86.7728 20.6831 85.5942 21.7072C85.3765 21.8848 85.1066 21.9864 84.8258 21.9963C84.3143 22.0297 83.7917 22.0519 83.2802 22.1075C81.6568 22.2854 80.3102 21.5071 78.9648 20.7943C78.3532 20.4718 77.8417 19.9603 77.2746 19.5489C76.8299 19.2265 76.6075 18.8262 76.652 18.2702C76.6742 17.9255 76.652 17.5697 76.652 17.0915C76.374 15.7227 77.0967 14.444 77.5081 13.0886C77.6416 12.666 78.0863 12.477 78.3421 12.1323C79.3651 10.7413 80.9229 10.2965 82.4563 9.81834C82.6348 9.76642 82.8249 9.7703 83.0011 9.82946C83.7461 10.0185 84.5022 10.2186 85.2584 10.3965C85.871 10.5411 86.238 11.0415 86.7272 11.3639C88.3173 12.3992 89.0067 13.9114 89.2625 15.7461C89.397 16.7135 89.1857 17.4574 88.7187 18.2924Z" fill="#E7696B"/>
<path d="M51.0227 71.72C50.9396 71.9141 50.8241 72.0927 50.6814 72.2482C48.9412 74.2597 46.6584 76.9906 44.479 79.8583C44.0398 80.3643 39.9823 85.6893 39.5664 86.2487C39.4435 86.4112 39.3037 86.5603 39.1494 86.6934C38.9993 86.8169 38.6991 86.7146 38.5423 86.6067C38.0493 86.2665 37.6029 85.8631 37.2147 85.4069C37.0501 85.2123 37.049 85.0233 37.1891 84.7865C37.5627 84.1282 41.3566 79.2746 41.7925 78.6964C43.3492 76.5125 46.6695 72.7397 48.274 70.6581C48.4403 70.4097 48.6286 70.1768 48.8367 69.9621C49.0357 69.7819 49.178 69.7597 49.406 69.9143C49.9172 70.2635 50.4094 70.6399 50.8804 71.0418C51.0961 71.2175 51.115 71.4565 51.0227 71.72Z" fill="#E7696B"/>
<path d="M11.0129 95.2708C11.1797 95.144 13.8917 91.588 14.0329 91.4101C15.7242 89.1462 15.5541 89.2974 17.9247 86.4064C18.3172 85.7515 27.8443 74.3096 28.3203 73.8737C28.4536 73.7177 28.5703 73.5481 28.6683 73.3678C28.7617 73.1943 28.6194 72.9041 28.4959 72.7618C28.1081 72.3208 27.6652 71.9314 27.1783 71.6031C26.9726 71.4675 26.7969 71.4975 26.5956 71.6821C26.0208 72.0957 16.8639 83.1451 16.4014 83.8022C14.59 85.8849 13.9384 87.0335 12.1493 89.1618C11.9436 89.3942 9.14707 92.9991 8.98584 93.2904C8.84129 93.5439 8.84018 93.7029 9.02365 93.9164C9.43305 94.3952 9.87162 94.8483 10.3368 95.273C10.5348 95.4587 10.7694 95.4265 11.0129 95.2708Z" fill="#E7696B"/>
<path d="M20.9115 58.8849C20.8141 59.0744 20.6859 59.2465 20.5323 59.3942C18.6554 61.3278 18.1272 61.747 15.7321 64.4668C15.2517 64.9339 9.68537 71.372 9.23392 71.9168C9.09871 72.0718 8.94779 72.2123 8.78358 72.336C8.62569 72.4472 8.33881 72.336 8.18425 72.2249C7.71841 71.8719 7.30215 71.4579 6.94666 70.9939C6.79766 70.7971 6.80989 70.6103 6.96779 70.3824C7.38476 69.7352 12.6565 63.7463 13.1379 63.207C14.8637 61.1377 16.5405 59.7845 18.2862 57.773C18.4842 57.5506 18.7555 57.2459 18.9634 57.0224C19.1947 56.7733 19.3148 56.79 19.5305 56.9512C20.0976 57.3727 20.2999 57.7296 20.8226 58.2011C21.0205 58.389 21.0227 58.6247 20.9115 58.8849Z" fill="#E7696B"/>
<path d="M30.9321 48.8509C30.8387 49.0221 30.0259 49.8005 29.8658 49.9472C28.9951 50.7256 26.6723 52.9773 25.9117 53.7512C25.4236 54.2093 24.5474 55.1367 24.0603 55.6014C23.9174 55.7406 23.7605 55.8647 23.5922 55.9717C23.4288 56.0729 23.1474 55.9461 22.9995 55.8283C22.5543 55.461 22.1598 55.0362 21.8264 54.5651C21.6863 54.365 21.7086 54.1882 21.8765 53.9791C22.3324 53.4165 22.8772 52.9217 23.3743 52.3957C24.2038 51.5217 27.0526 48.7697 27.6452 48.2204C27.8509 48.008 28.706 47.154 28.9495 46.9817C29.1719 46.826 29.312 46.8171 29.5211 46.9817C29.9911 47.3591 30.4399 47.7622 30.8654 48.1893C31.06 48.3749 31.0522 48.604 30.9321 48.8509Z" fill="#E7696B"/>
<path d="M30.2727 94.0957C30.3361 93.8911 31.0188 92.9193 31.1545 92.737C31.895 91.7584 31.9751 91.6495 32.6211 90.7254C33.0392 90.1695 33.782 89.0698 34.2045 88.5205C34.3271 88.358 34.4665 88.2089 34.6204 88.0757C34.7694 87.9501 35.0707 88.0523 35.2275 88.1613C35.7209 88.5028 36.1692 88.9052 36.5618 89.3589C36.7264 89.5524 36.7297 89.7414 36.5907 89.9804C36.216 90.6287 35.7446 91.2203 35.3309 91.8429C34.6315 92.8704 34.1156 93.5865 33.6207 94.2759C33.4506 94.5338 32.7445 95.5913 32.5333 95.8192C32.3431 96.0227 32.1997 96.0572 31.9684 95.9093C31.4373 95.5753 30.927 95.2092 30.4406 94.8129C30.2215 94.6373 30.1982 94.3837 30.2727 94.0957Z" fill="#E7696B"/>
<path d="M0.145662 78.8165C0.225722 78.6185 0.981841 77.7045 1.13084 77.5311C1.9459 76.6137 2.03374 76.5114 2.75094 75.6408C3.21129 75.1193 4.03746 74.084 4.50114 73.5681C4.6341 73.4143 4.78321 73.2753 4.94591 73.1534C5.10381 73.0422 5.39069 73.1667 5.54414 73.2868C6.00926 73.666 6.4247 74.1024 6.78061 74.5855C6.92961 74.7901 6.91849 74.9792 6.76171 75.2071C6.33695 75.8242 5.8199 76.378 5.35844 76.9662C4.58008 77.9358 4.01188 78.6085 3.46814 79.2568C3.27689 79.5014 2.49075 80.4999 2.2628 80.7112C2.05709 80.8991 1.91365 80.9225 1.69238 80.7568C1.18871 80.3823 0.708557 79.9771 0.254632 79.5437C0.0522588 79.3524 0.0433638 79.0978 0.145662 78.8165Z" fill="#E7696B"/>
</g>
<defs>
<clipPath id="clip0_522_80">
<rect width="99" height="96" fill="white"/>
</clipPath>
</defs>
</svg>
